<?xml version="1.0" encoding="UTF-8"?>
<!-- Generator: visioncortex VTracer 0.6.3 -->
<svg version="1.1" xmlns="http://www.w3.org/2000/svg" width="1280" height="1280">
<path d="M0 0 C422.4 0 844.8 0 1280 0 C1280 422.4 1280 844.8 1280 1280 C857.6 1280 435.2 1280 0 1280 C0 857.6 0 435.2 0 0 Z " fill="#FCFCFC" transform="translate(0,0)"/>
<path d="M0 0 C2.72 -0 5.43 -0.02 8.15 -0.03 C14.72 -0.06 21.3 -0.05 27.87 -0.04 C33.22 -0.02 38.57 -0.02 43.92 -0.03 C44.68 -0.03 45.45 -0.03 46.24 -0.03 C47.79 -0.03 49.35 -0.03 50.9 -0.04 C65.43 -0.05 79.97 -0.03 94.5 -0 C106.94 0.03 119.38 0.02 131.82 -0.01 C146.3 -0.04 160.79 -0.05 175.27 -0.03 C176.82 -0.03 178.37 -0.03 179.92 -0.03 C181.06 -0.03 181.06 -0.03 182.22 -0.02 C187.56 -0.02 192.9 -0.03 198.23 -0.04 C204.74 -0.06 211.26 -0.05 217.77 -0.02 C221.09 -0.01 224.4 -0 227.72 -0.02 C244.29 -0.1 259.03 0.03 272.48 10.96 C281.1 19.69 285.72 30.32 290.86 41.28 C293.79 47.53 296.93 53.47 300.51 59.38 C302.18 62.22 303.47 65.13 304.77 68.16 C311.87 85.69 311.87 85.69 325.92 97.14 C329.28 98.21 332.63 98.18 336.11 98.15 C336.9 98.15 337.7 98.16 338.52 98.16 C341.17 98.17 343.83 98.16 346.48 98.15 C348.39 98.15 350.3 98.15 352.21 98.16 C356.32 98.17 360.42 98.16 364.53 98.16 C371.03 98.14 377.53 98.16 384.04 98.17 C400.19 98.21 416.35 98.22 432.51 98.21 C445.06 98.21 457.61 98.22 470.15 98.25 C476.61 98.27 483.06 98.27 489.51 98.25 C493.55 98.25 497.58 98.26 501.61 98.27 C503.46 98.28 505.32 98.27 507.18 98.26 C533.07 98.13 533.07 98.13 542.92 106.78 C543.44 107.23 543.96 107.69 544.5 108.16 C546.52 110.46 547.99 112.96 549.54 115.59 C550.15 116.61 550.76 117.62 551.39 118.67 C554.38 124.76 554.06 131.08 554.05 137.72 C554.05 139.22 554.05 139.22 554.06 140.76 C554.06 144.13 554.06 147.5 554.06 150.87 C554.06 153.31 554.06 155.75 554.07 158.18 C554.07 164.19 554.08 170.19 554.08 176.19 C554.08 183.39 554.09 190.58 554.09 197.77 C554.11 215.15 554.11 232.52 554.12 249.9 C554.12 258.12 554.12 266.34 554.13 274.56 C554.14 302.7 554.15 330.84 554.16 358.97 C554.16 360.74 554.16 362.51 554.16 364.27 C554.16 366.04 554.16 367.81 554.16 369.58 C554.16 373.13 554.16 376.69 554.16 380.24 C554.16 381.12 554.16 382 554.16 382.91 C554.16 411.47 554.18 440.03 554.2 468.59 C554.23 498.79 554.24 528.98 554.24 559.18 C554.24 562.49 554.24 565.8 554.24 569.12 C554.24 569.93 554.24 570.75 554.24 571.59 C554.24 584.73 554.25 597.86 554.27 611 C554.28 624.2 554.29 637.4 554.28 650.6 C554.27 658.44 554.28 666.28 554.29 674.13 C554.3 679.98 554.3 685.84 554.29 691.69 C554.29 694.06 554.29 696.43 554.3 698.8 C554.31 702.02 554.3 705.24 554.29 708.46 C554.3 709.38 554.31 710.3 554.31 711.25 C554.22 722.54 550.26 730.32 542.41 738.31 C534.07 745.76 526.66 746.36 515.91 746.29 C514.48 746.29 513.05 746.3 511.62 746.31 C507.68 746.33 503.75 746.32 499.81 746.31 C495.53 746.3 491.25 746.32 486.97 746.33 C479.46 746.35 471.96 746.35 464.45 746.35 C453.29 746.34 442.13 746.35 430.97 746.37 C409.88 746.41 388.79 746.41 367.7 746.41 C351.41 746.41 335.13 746.42 318.84 746.43 C316.5 746.43 314.16 746.43 311.82 746.43 C310.66 746.43 309.5 746.43 308.31 746.44 C306.56 746.44 306.56 746.44 304.78 746.44 C303.03 746.44 303.03 746.44 301.25 746.44 C268.48 746.46 235.71 746.47 202.93 746.47 C201.08 746.47 201.08 746.47 199.19 746.47 C192.92 746.47 186.66 746.46 180.39 746.46 C178.53 746.46 178.53 746.46 176.62 746.46 C174.11 746.46 171.59 746.46 169.08 746.46 C129.93 746.46 90.78 746.48 51.64 746.52 C7.67 746.58 -36.3 746.6 -80.27 746.6 C-84.96 746.6 -89.65 746.6 -94.34 746.6 C-95.49 746.6 -96.64 746.6 -97.83 746.6 C-115.27 746.59 -132.7 746.61 -150.13 746.64 C-169.95 746.67 -189.78 746.68 -209.6 746.65 C-220.7 746.63 -231.79 746.64 -242.89 746.67 C-250.3 746.69 -257.71 746.69 -265.12 746.66 C-269.34 746.65 -273.57 746.65 -277.79 746.67 C-281.64 746.7 -285.48 746.69 -289.33 746.66 C-291.35 746.65 -293.38 746.67 -295.4 746.7 C-306.42 746.55 -315.23 742.75 -323.21 735.09 C-324.18 734 -325.14 732.9 -326.08 731.78 C-326.98 730.85 -326.98 730.85 -327.89 729.9 C-331.5 723.45 -331.37 715.66 -331.33 708.46 C-331.34 707.46 -331.34 706.45 -331.34 705.42 C-331.35 702.05 -331.34 698.68 -331.34 695.32 C-331.34 692.88 -331.34 690.44 -331.35 688 C-331.35 682.7 -331.35 677.4 -331.35 672.1 C-331.34 664.21 -331.34 656.33 -331.35 648.44 C-331.36 634.36 -331.36 620.28 -331.35 606.2 C-331.35 593.88 -331.35 581.56 -331.35 569.23 C-331.35 568.42 -331.35 567.6 -331.35 566.76 C-331.35 563.44 -331.35 560.12 -331.35 556.8 C-331.36 525.68 -331.35 494.55 -331.34 463.42 C-331.33 435.77 -331.33 408.12 -331.34 380.46 C-331.35 349.39 -331.36 318.32 -331.35 287.26 C-331.35 283.94 -331.35 280.63 -331.35 277.32 C-331.35 276.5 -331.35 275.69 -331.35 274.85 C-331.35 262.53 -331.35 250.22 -331.35 237.9 C-331.36 223.9 -331.36 209.9 -331.35 195.9 C-331.34 188.06 -331.34 180.22 -331.35 172.39 C-331.35 166.54 -331.35 160.69 -331.34 154.84 C-331.34 152.47 -331.34 150.1 -331.34 147.73 C-331.35 144.52 -331.34 141.3 -331.33 138.09 C-331.34 137.17 -331.34 136.24 -331.35 135.29 C-331.3 127.11 -330.8 120 -325.08 113.78 C-324.44 112.77 -323.8 111.76 -323.14 110.71 C-318.19 103.66 -311.04 101.27 -302.91 99.23 C-299.29 98.65 -295.73 98.63 -292.07 98.63 C-290.87 98.63 -290.87 98.63 -289.65 98.62 C-286.96 98.61 -284.28 98.61 -281.6 98.6 C-279.68 98.6 -277.75 98.59 -275.83 98.58 C-271.69 98.57 -267.55 98.56 -263.41 98.55 C-256.86 98.53 -250.32 98.51 -243.77 98.48 C-225.15 98.41 -206.54 98.35 -187.92 98.3 C-177.64 98.27 -167.36 98.24 -157.08 98.19 C-150.57 98.17 -144.06 98.15 -137.55 98.14 C-133.51 98.13 -129.46 98.11 -125.41 98.09 C-123.53 98.08 -121.65 98.08 -119.78 98.08 C-117.21 98.08 -114.65 98.06 -112.09 98.05 C-111.35 98.05 -110.6 98.05 -109.83 98.06 C-104.16 98 -100.68 97.22 -96.46 93.4 C-92.57 89.1 -89.93 84.73 -87.39 79.53 C-86.68 78.08 -85.97 76.63 -85.25 75.19 C-84.89 74.45 -84.53 73.71 -84.16 72.96 C-83.15 70.91 -82.13 68.87 -81.1 66.83 C-77.93 60.55 -74.82 54.25 -71.88 47.85 C-54.59 10.57 -54.59 10.57 -34.32 2.77 C-23.32 -0.94 -11.46 -0.06 0 0 Z " fill="#FCFCFC" transform="translate(528.08203125,266.2236328125)"/>
<path d="M0 0 C1.29 0.12 1.29 0.12 2.61 0.24 C6.87 0.68 10.29 1.43 14.25 3.12 C17.97 3.91 21.71 4.58 25.46 5.25 C29.33 6.14 32.63 7.51 36.25 9.12 C38.86 9.94 41.48 10.66 44.11 11.38 C46.25 12.12 46.25 12.12 48.25 14.12 C49.59 14.61 50.94 15.04 52.31 15.44 C58.54 17.42 63.91 20.55 69.31 24.19 C71.62 25.71 73.71 26.84 76.19 28 C79.79 29.75 82.53 31.9 85.49 34.58 C87.22 36.1 89 37.42 90.88 38.75 C105.24 49.44 118.46 63.16 128.25 78.12 C129.46 79.81 130.66 81.5 131.88 83.19 C134.59 87.06 136.96 91.01 139.2 95.17 C140.03 96.73 140.94 98.25 141.88 99.75 C143.27 102.16 144.38 104.62 145.44 107.2 C146.3 109.23 147.21 111.24 148.12 113.25 C158.9 137.71 163.42 162.87 163.44 189.56 C163.45 190.69 163.46 191.81 163.47 192.97 C163.49 200.87 162.62 208.35 161.25 216.12 C160.99 217.82 160.72 219.53 160.47 221.23 C160.23 222.73 159.99 224.24 159.75 225.75 C159.63 226.52 159.52 227.3 159.39 228.1 C158.81 231.71 158.31 234.03 156.25 237.12 C155.43 240.63 154.79 244.14 154.13 247.68 C153.27 251.04 152.11 253.23 150.25 256.12 C149.92 257.32 149.59 258.52 149.25 259.75 C148.25 263.12 148.25 263.12 146.78 264.59 C145.01 266.37 144.51 267.75 143.75 270.12 C142.74 273.29 141.59 274.81 139.25 277.12 C138.53 279.05 137.81 280.99 137.13 282.93 C135.44 287.15 133.05 291.35 129.8 294.56 C127.88 296.5 126.48 298.62 124.94 300.88 C119.41 308.58 112.85 315.33 106.25 322.12 C105.68 322.72 105.11 323.32 104.53 323.93 C100.5 328.08 96.25 331.62 91.56 335 C90.91 335.48 90.26 335.97 89.59 336.47 C88.96 336.93 88.33 337.39 87.68 337.87 C87.11 338.28 86.55 338.69 85.97 339.11 C84.25 340.12 84.25 340.12 82.1 340.65 C81.49 340.81 80.88 340.96 80.25 341.12 C79.57 342.45 78.91 343.79 78.25 345.12 C76.08 346.72 76.08 346.72 73.5 348.19 C72.6 348.7 71.71 349.21 70.78 349.74 C67.97 351.28 65.14 352.74 62.25 354.12 C60.8 354.87 60.8 354.87 59.31 355.62 C56 357.25 52.65 358.72 49.25 360.12 C48.14 360.59 48.14 360.59 47 361.06 C38.07 364.72 29.12 367.97 19.6 369.7 C17.36 370.11 15.16 370.6 12.94 371.12 C0.62 373.83 -11.26 374.49 -23.81 374.44 C-24.67 374.44 -25.53 374.44 -26.42 374.43 C-56.02 374.37 -56.02 374.37 -68.75 369.12 C-70.68 368.68 -72.62 368.26 -74.56 367.88 C-87.76 364.9 -99.84 359.44 -111.75 353.12 C-112.6 352.68 -113.46 352.24 -114.34 351.78 C-118.74 349.43 -122.66 346.78 -126.6 343.71 C-129.01 341.93 -131.51 340.38 -134.06 338.81 C-143.34 332.95 -151.17 325.88 -158.94 318.19 C-159.95 317.19 -159.95 317.19 -160.98 316.18 C-161.6 315.55 -162.22 314.93 -162.86 314.29 C-163.41 313.72 -163.97 313.16 -164.55 312.59 C-165.75 311.12 -165.75 311.12 -165.75 309.12 C-166.74 308.8 -167.73 308.46 -168.75 308.12 C-170.13 306.65 -170.13 306.65 -171.53 304.77 C-172.04 304.09 -172.55 303.4 -173.08 302.69 C-173.61 301.97 -174.14 301.25 -174.69 300.5 C-175.48 299.45 -175.48 299.45 -176.28 298.38 C-179.45 294.1 -182.19 289.79 -184.75 285.12 C-185.92 283.17 -187.08 281.21 -188.25 279.25 C-191.13 274.32 -193.55 269.38 -195.75 264.12 C-196.44 262.62 -197.12 261.12 -197.81 259.62 C-199.77 255.21 -201.29 250.72 -202.75 246.12 C-203.27 244.52 -203.79 242.92 -204.31 241.31 C-204.54 240.6 -204.77 239.9 -205 239.17 C-205.69 237.12 -205.69 237.12 -206.73 235.33 C-217.22 212.69 -213.82 173.76 -208.75 150.12 C-208.5 148.88 -208.25 147.64 -207.99 146.36 C-205.91 136.73 -202.61 127.56 -199.25 118.31 C-198.95 117.48 -198.66 116.65 -198.36 115.79 C-196.88 111.75 -195.5 108.49 -192.75 105.12 C-192.44 103.99 -192.13 102.86 -191.81 101.69 C-190.66 97.82 -189.28 96.22 -186.75 93.12 C-185.75 91.33 -184.77 89.51 -183.81 87.69 C-181.47 83.29 -179.05 79.84 -175.75 76.12 C-174.87 74.92 -173.99 73.71 -173.12 72.5 C-163.6 59.71 -151.59 47.5 -138.75 38.12 C-137.33 37.06 -135.92 36 -134.5 34.94 C-133.85 34.45 -133.19 33.97 -132.52 33.47 C-131.04 32.34 -129.6 31.15 -128.19 29.94 C-125.24 27.74 -122.12 26.56 -118.75 25.12 C-118.34 24.67 -117.93 24.21 -117.51 23.75 C-114.83 21.28 -111.57 20.13 -108.25 18.75 C-106.8 18.13 -105.35 17.52 -103.9 16.9 C-102.83 16.45 -102.83 16.45 -101.75 15.99 C-99.1 14.84 -96.49 13.61 -93.88 12.38 C-88.94 10.12 -83.98 8.53 -78.75 7.12 C-77.39 6.74 -77.39 6.74 -76 6.35 C-70.87 4.91 -65.74 3.63 -60.53 2.55 C-58.66 2.17 -58.66 2.17 -56.75 1.12 C-37.95 -1.6 -18.89 -1.73 0 0 Z " fill="#FCFCFC" transform="translate(663.75,478.875)"/>
<path d="M0 0 C2.72 -0 5.43 -0.02 8.15 -0.03 C14.72 -0.06 21.3 -0.05 27.87 -0.04 C33.22 -0.02 38.57 -0.02 43.92 -0.03 C44.68 -0.03 45.45 -0.03 46.24 -0.03 C47.79 -0.03 49.35 -0.03 50.9 -0.04 C65.43 -0.05 79.97 -0.03 94.5 -0 C106.94 0.03 119.38 0.02 131.82 -0.01 C146.3 -0.04 160.79 -0.05 175.27 -0.03 C176.82 -0.03 178.37 -0.03 179.92 -0.03 C181.06 -0.03 181.06 -0.03 182.22 -0.02 C187.56 -0.02 192.9 -0.03 198.23 -0.04 C204.74 -0.06 211.26 -0.05 217.77 -0.02 C221.09 -0.01 224.4 -0 227.72 -0.02 C244.29 -0.1 259.03 0.03 272.48 10.96 C281.1 19.69 285.72 30.32 290.86 41.28 C293.79 47.53 296.93 53.47 300.51 59.38 C302.18 62.22 303.47 65.13 304.77 68.16 C311.87 85.69 311.87 85.69 325.92 97.14 C329.28 98.21 332.63 98.18 336.11 98.15 C336.9 98.15 337.7 98.16 338.52 98.16 C341.17 98.17 343.83 98.16 346.48 98.15 C348.39 98.15 350.3 98.15 352.21 98.16 C356.32 98.17 360.42 98.16 364.53 98.16 C371.03 98.14 377.53 98.16 384.04 98.17 C400.19 98.21 416.35 98.22 432.51 98.21 C445.06 98.21 457.61 98.22 470.15 98.25 C476.61 98.27 483.06 98.27 489.51 98.25 C493.55 98.25 497.58 98.26 501.61 98.27 C503.46 98.28 505.32 98.27 507.18 98.26 C533.07 98.13 533.07 98.13 542.92 106.78 C543.44 107.23 543.96 107.69 544.5 108.16 C546.52 110.46 547.99 112.96 549.54 115.59 C550.15 116.61 550.76 117.62 551.39 118.67 C554.38 124.76 554.06 131.08 554.05 137.72 C554.05 139.22 554.05 139.22 554.06 140.76 C554.06 144.13 554.06 147.5 554.06 150.87 C554.06 153.31 554.06 155.75 554.07 158.18 C554.07 164.19 554.08 170.19 554.08 176.19 C554.08 183.39 554.09 190.58 554.09 197.77 C554.11 215.15 554.11 232.52 554.12 249.9 C554.12 258.12 554.12 266.34 554.13 274.56 C554.14 302.7 554.15 330.84 554.16 358.97 C554.16 360.74 554.16 362.51 554.16 364.27 C554.16 366.04 554.16 367.81 554.16 369.58 C554.16 373.13 554.16 376.69 554.16 380.24 C554.16 381.12 554.16 382 554.16 382.91 C554.16 411.47 554.18 440.03 554.2 468.59 C554.23 498.79 554.24 528.98 554.24 559.18 C554.24 562.49 554.24 565.8 554.24 569.12 C554.24 569.93 554.24 570.75 554.24 571.59 C554.24 584.73 554.25 597.86 554.27 611 C554.28 624.2 554.29 637.4 554.28 650.6 C554.27 658.44 554.28 666.28 554.29 674.13 C554.3 679.98 554.3 685.84 554.29 691.69 C554.29 694.06 554.29 696.43 554.3 698.8 C554.31 702.02 554.3 705.24 554.29 708.46 C554.3 709.38 554.31 710.3 554.31 711.25 C554.22 722.54 550.26 730.32 542.41 738.31 C534.07 745.76 526.66 746.36 515.91 746.29 C514.48 746.29 513.05 746.3 511.62 746.31 C507.68 746.33 503.75 746.32 499.81 746.31 C495.53 746.3 491.25 746.32 486.97 746.33 C479.46 746.35 471.96 746.35 464.45 746.35 C453.29 746.34 442.13 746.35 430.97 746.37 C409.88 746.41 388.79 746.41 367.7 746.41 C351.41 746.41 335.13 746.42 318.84 746.43 C316.5 746.43 314.16 746.43 311.82 746.43 C310.66 746.43 309.5 746.43 308.31 746.44 C306.56 746.44 306.56 746.44 304.78 746.44 C303.03 746.44 303.03 746.44 301.25 746.44 C268.48 746.46 235.71 746.47 202.93 746.47 C201.08 746.47 201.08 746.47 199.19 746.47 C192.92 746.47 186.66 746.46 180.39 746.46 C178.53 746.46 178.53 746.46 176.62 746.46 C174.11 746.46 171.59 746.46 169.08 746.46 C129.93 746.46 90.78 746.48 51.64 746.52 C7.67 746.58 -36.3 746.6 -80.27 746.6 C-84.96 746.6 -89.65 746.6 -94.34 746.6 C-95.49 746.6 -96.64 746.6 -97.83 746.6 C-115.27 746.59 -132.7 746.61 -150.13 746.64 C-169.95 746.67 -189.78 746.68 -209.6 746.65 C-220.7 746.63 -231.79 746.64 -242.89 746.67 C-250.3 746.69 -257.71 746.69 -265.12 746.66 C-269.34 746.65 -273.57 746.65 -277.79 746.67 C-281.64 746.7 -285.48 746.69 -289.33 746.66 C-291.35 746.65 -293.38 746.67 -295.4 746.7 C-306.42 746.55 -315.23 742.75 -323.21 735.09 C-324.18 734 -325.14 732.9 -326.08 731.78 C-326.98 730.85 -326.98 730.85 -327.89 729.9 C-331.5 723.45 -331.37 715.66 -331.33 708.46 C-331.34 707.46 -331.34 706.45 -331.34 705.42 C-331.35 702.05 -331.34 698.68 -331.34 695.32 C-331.34 692.88 -331.34 690.44 -331.35 688 C-331.35 682.7 -331.35 677.4 -331.35 672.1 C-331.34 664.21 -331.34 656.33 -331.35 648.44 C-331.36 634.36 -331.36 620.28 -331.35 606.2 C-331.35 593.88 -331.35 581.56 -331.35 569.23 C-331.35 568.42 -331.35 567.6 -331.35 566.76 C-331.35 563.44 -331.35 560.12 -331.35 556.8 C-331.36 525.68 -331.35 494.55 -331.34 463.42 C-331.33 435.77 -331.33 408.12 -331.34 380.46 C-331.35 349.39 -331.36 318.32 -331.35 287.26 C-331.35 283.94 -331.35 280.63 -331.35 277.32 C-331.35 276.5 -331.35 275.69 -331.35 274.85 C-331.35 262.53 -331.35 250.22 -331.35 237.9 C-331.36 223.9 -331.36 209.9 -331.35 195.9 C-331.34 188.06 -331.34 180.22 -331.35 172.39 C-331.35 166.54 -331.35 160.69 -331.34 154.84 C-331.34 152.47 -331.34 150.1 -331.34 147.73 C-331.35 144.52 -331.34 141.3 -331.33 138.09 C-331.34 137.17 -331.34 136.24 -331.35 135.29 C-331.3 127.11 -330.8 120 -325.08 113.78 C-324.44 112.77 -323.8 111.76 -323.14 110.71 C-318.19 103.66 -311.04 101.27 -302.91 99.23 C-299.29 98.65 -295.73 98.63 -292.07 98.63 C-290.87 98.63 -290.87 98.63 -289.65 98.62 C-286.96 98.61 -284.28 98.61 -281.6 98.6 C-279.68 98.6 -277.75 98.59 -275.83 98.58 C-271.69 98.57 -267.55 98.56 -263.41 98.55 C-256.86 98.53 -250.32 98.51 -243.77 98.48 C-225.15 98.41 -206.54 98.35 -187.92 98.3 C-177.64 98.27 -167.36 98.24 -157.08 98.19 C-150.57 98.17 -144.06 98.15 -137.55 98.14 C-133.51 98.13 -129.46 98.11 -125.41 98.09 C-123.53 98.08 -121.65 98.08 -119.78 98.08 C-117.21 98.08 -114.65 98.06 -112.09 98.05 C-111.35 98.05 -110.6 98.05 -109.83 98.06 C-104.16 98 -100.68 97.22 -96.46 93.4 C-92.57 89.1 -89.93 84.73 -87.39 79.53 C-86.68 78.08 -85.97 76.63 -85.25 75.19 C-84.89 74.45 -84.53 73.71 -84.16 72.96 C-83.15 70.91 -82.13 68.87 -81.1 66.83 C-77.93 60.55 -74.82 54.25 -71.88 47.85 C-54.59 10.57 -54.59 10.57 -34.32 2.77 C-23.32 -0.94 -11.46 -0.06 0 0 Z M-33.08 38.78 C-33.96 40.71 -33.96 40.71 -34.58 42.78 C-35.33 45.12 -35.81 46.51 -37.58 48.25 C-39.42 50.12 -39.86 51.65 -40.58 54.15 C-41.69 57.73 -43.06 60.61 -45.08 63.78 C-45.41 64.64 -45.74 65.51 -46.08 66.4 C-47.08 68.78 -47.08 68.78 -48.55 70.14 C-50.4 72.11 -50.86 73.69 -51.58 76.28 C-52.55 79.73 -53.58 81.28 -56.08 83.78 C-56.75 85.71 -56.75 85.71 -57.08 87.78 C-57.7 91.16 -58.65 92.4 -61.08 94.78 C-62.18 96.87 -62.18 96.87 -63.08 99.15 C-66 105.96 -69.46 110.4 -74.89 115.46 C-76.31 116.73 -76.31 116.73 -76.08 118.78 C-77.01 119.02 -77.94 119.27 -78.89 119.53 C-82.13 120.44 -82.13 120.44 -83.35 122.72 C-87.53 127.68 -97.06 128.38 -103.35 129 C-109.1 129.36 -114.85 129.32 -120.61 129.29 C-122.52 129.3 -124.42 129.3 -126.32 129.31 C-130.39 129.33 -134.45 129.33 -138.52 129.32 C-144.95 129.31 -151.38 129.33 -157.81 129.35 C-167.97 129.38 -178.14 129.39 -188.3 129.4 C-206.52 129.4 -224.75 129.43 -242.98 129.48 C-249.37 129.5 -255.76 129.5 -262.15 129.5 C-266.12 129.5 -270.09 129.51 -274.05 129.52 C-275.89 129.52 -277.73 129.52 -279.57 129.51 C-282.08 129.51 -284.59 129.52 -287.1 129.52 C-287.83 129.52 -288.56 129.52 -289.3 129.51 C-293.63 129.54 -297.03 130.33 -301.08 131.78 C-301.15 187.12 -301.21 242.47 -301.25 297.82 C-301.25 298.64 -301.25 299.46 -301.25 300.3 C-301.27 318.09 -301.28 335.88 -301.29 353.67 C-301.29 362.39 -301.3 371.12 -301.3 379.84 C-301.3 380.71 -301.3 381.58 -301.3 382.47 C-301.32 410.63 -301.35 438.79 -301.39 466.95 C-301.42 495.87 -301.45 524.8 -301.46 553.73 C-301.46 557.81 -301.46 561.89 -301.46 565.97 C-301.46 566.78 -301.46 567.58 -301.46 568.41 C-301.47 581.36 -301.49 594.32 -301.51 607.27 C-301.53 620.28 -301.54 633.29 -301.54 646.3 C-301.53 654.04 -301.54 661.78 -301.57 669.51 C-301.58 675.28 -301.58 681.04 -301.57 686.81 C-301.56 689.15 -301.57 691.49 -301.58 693.84 C-301.6 697 -301.59 700.17 -301.57 703.33 C-301.59 704.72 -301.59 704.72 -301.61 706.13 C-301.6 706.97 -301.59 707.81 -301.58 708.68 C-301.58 709.4 -301.58 710.13 -301.58 710.87 C-301.21 712.93 -301.21 712.93 -299.41 714.51 C-296.52 716.08 -294.63 716.15 -291.35 716.15 C-289.58 716.16 -289.58 716.16 -287.78 716.17 C-286.48 716.16 -285.18 716.16 -283.84 716.15 C-282.44 716.15 -281.04 716.15 -279.65 716.16 C-275.79 716.17 -271.93 716.16 -268.07 716.15 C-263.87 716.14 -259.68 716.15 -255.49 716.15 C-248.14 716.16 -240.78 716.16 -233.43 716.15 C-222.49 716.13 -211.56 716.13 -200.63 716.14 C-182.23 716.15 -163.84 716.14 -145.45 716.12 C-127.23 716.11 -109.01 716.1 -90.79 716.1 C-89.65 716.1 -88.52 716.1 -87.36 716.1 C-82.76 716.1 -78.17 716.1 -73.57 716.1 C-31.68 716.1 10.22 716.08 52.11 716.06 C91.69 716.03 131.27 716.02 170.85 716.02 C172.07 716.02 173.29 716.02 174.55 716.02 C179.46 716.02 184.38 716.02 189.29 716.01 C191.74 716.01 194.19 716.01 196.64 716.01 C199.08 716.01 201.53 716.01 203.97 716.01 C242.85 716.01 281.72 716 320.59 715.99 C331.99 715.98 343.38 715.98 354.77 715.98 C378.73 715.97 402.69 715.96 426.66 715.95 C436.57 715.94 446.48 715.94 456.4 715.94 C464.61 715.94 472.83 715.93 481.04 715.92 C485.18 715.92 489.32 715.92 493.46 715.92 C497.22 715.92 500.98 715.92 504.74 715.91 C506.74 715.91 508.74 715.91 510.75 715.91 C511.92 715.91 513.1 715.91 514.31 715.9 C515.33 715.9 516.35 715.9 517.4 715.9 C520.05 715.88 520.05 715.88 522.92 714.78 C524.65 711.31 524.06 707.3 524.05 703.48 C524.06 702.01 524.06 702.01 524.06 700.51 C524.07 697.18 524.07 693.86 524.07 690.54 C524.08 688.15 524.08 685.75 524.09 683.36 C524.1 677.45 524.1 671.54 524.11 665.63 C524.11 658.56 524.12 651.49 524.13 644.41 C524.16 627.32 524.17 610.22 524.19 593.12 C524.19 587.46 524.19 581.8 524.2 576.14 C524.22 546.06 524.25 515.98 524.26 485.9 C524.26 478.93 524.27 471.96 524.27 464.99 C524.27 464.12 524.27 463.26 524.27 462.36 C524.28 434.27 524.31 406.17 524.35 378.07 C524.4 349.21 524.42 320.34 524.43 291.47 C524.43 287.4 524.43 283.32 524.43 279.25 C524.43 278.45 524.43 277.65 524.43 276.82 C524.44 263.89 524.46 250.97 524.48 238.04 C524.51 225.06 524.52 212.08 524.5 199.1 C524.5 191.38 524.51 183.66 524.53 175.94 C524.55 170.19 524.55 164.44 524.53 158.68 C524.53 156.35 524.53 154.01 524.55 151.67 C524.57 148.51 524.56 145.36 524.54 142.2 C524.55 141.28 524.56 140.35 524.57 139.4 C524.54 137.09 524.48 135.03 523.92 132.78 C520.03 129.3 516.06 129.35 511.05 129.4 C509.87 129.4 509.87 129.4 508.67 129.39 C506.04 129.38 503.41 129.4 500.78 129.41 C498.89 129.41 497 129.4 495.12 129.4 C491.05 129.39 486.99 129.39 482.92 129.4 C476.48 129.41 470.04 129.4 463.6 129.38 C447.6 129.34 431.59 129.34 415.59 129.34 C403.16 129.34 390.74 129.33 378.32 129.3 C371.93 129.28 365.54 129.28 359.15 129.3 C355.16 129.31 351.16 129.3 347.16 129.28 C345.33 129.28 343.49 129.28 341.65 129.29 C328.36 129.36 314.07 129.28 303.5 120.09 C301.5 118.43 299.32 117.72 296.92 116.78 C296.59 115.79 296.26 114.8 295.92 113.78 C295.18 113.05 294.43 112.33 293.67 111.59 C288.83 106.65 285.77 100.74 282.81 94.54 C281.83 92.51 281.83 92.51 279.92 89.78 C279.61 88.81 279.3 87.84 278.98 86.84 C278.12 83.83 278.12 83.83 276.48 81.9 C274.95 79.82 274.27 78.19 273.42 75.78 C272.58 73.41 271.93 71.8 270.42 69.78 C268.53 67.26 267.71 64.67 266.67 61.72 C265.7 59.22 264.32 57.06 262.92 54.78 C261.92 52.44 260.92 50.11 259.92 47.78 C258.95 46.09 257.96 44.42 256.92 42.78 C256.48 41.97 256.05 41.17 255.61 40.34 C252.82 36.11 249.79 32.4 244.92 30.78 C243.43 30.68 241.93 30.64 240.44 30.64 C239.52 30.63 238.59 30.63 237.64 30.62 C236.12 30.62 236.12 30.62 234.56 30.62 C233.49 30.62 232.41 30.61 231.3 30.61 C227.67 30.6 224.04 30.59 220.41 30.58 C217.81 30.58 215.22 30.57 212.62 30.56 C204.82 30.53 197.02 30.52 189.22 30.51 C187.02 30.5 184.81 30.5 182.61 30.49 C168.92 30.47 155.23 30.45 141.53 30.44 C138.36 30.43 135.19 30.43 132.02 30.43 C131.23 30.43 130.44 30.42 129.63 30.42 C116.87 30.41 104.11 30.38 91.35 30.34 C78.24 30.29 65.14 30.27 52.03 30.27 C44.67 30.26 37.32 30.25 29.96 30.22 C23.04 30.19 16.11 30.18 9.19 30.19 C6.65 30.19 4.11 30.18 1.57 30.17 C-1.9 30.14 -5.37 30.15 -8.84 30.17 C-9.84 30.15 -10.84 30.14 -11.87 30.13 C-19.95 30.22 -27.6 32.5 -33.08 38.78 Z " fill="#100F0D" transform="translate(528.08203125,266.2236328125)"/>
<path d="M0 0 C3.21 0.86 6.35 1.48 9.63 2 C13.95 2.75 17.5 4.12 21.5 5.94 C23.27 6.52 25.04 7.08 26.82 7.63 C46.77 14.21 65.58 24.51 82.26 37.24 C84 38.56 85.74 39.85 87.5 41.14 C88.55 41.92 89.61 42.7 90.69 43.5 C91.67 44.23 92.66 44.95 93.67 45.7 C96.52 47.95 98.97 50.34 101.5 52.94 C102.82 54.23 104.14 55.51 105.46 56.8 C119.4 70.43 119.4 70.43 123.97 77.62 C125.81 80.4 127.91 82.85 130.07 85.38 C133.58 89.63 136.32 93.83 138.84 98.72 C141.37 103.62 144.11 108.41 146.81 113.22 C148.06 115.45 149.29 117.69 150.5 119.94 C151.14 121.11 151.14 121.11 151.78 122.3 C155.12 128.69 157.44 135.19 159.57 142.07 C159.91 143.18 160.26 144.29 160.61 145.43 C161.59 148.6 162.55 151.77 163.5 154.94 C163.84 156.04 163.84 156.04 164.19 157.15 C171.72 181.73 174.07 209.78 170.69 235.19 C170.51 236.65 170.33 238.12 170.15 239.58 C169.64 243.71 169.08 247.82 168.5 251.94 C168.37 252.98 168.24 254.02 168.1 255.09 C166.86 263.71 164.22 271.79 161.44 280 C161.2 280.73 160.96 281.45 160.71 282.2 C156.78 293.86 152.36 305.1 146.5 315.94 C146.08 316.74 145.65 317.54 145.21 318.36 C141.77 324.67 141.77 324.67 139.5 326.94 C139.22 327.7 138.93 328.47 138.63 329.25 C137.34 332.32 135.58 334.35 133.5 336.94 C132.46 338.62 131.44 340.31 130.44 342 C126.89 347.67 122.7 352.35 118.12 357.17 C116.04 359.38 114.07 361.61 112.13 363.94 C102.3 375.26 90.21 384.84 77.89 393.27 C75.61 394.87 73.44 396.54 71.25 398.25 C68.13 400.64 65.26 401.75 61.5 402.94 C60.58 403.9 60.58 403.9 59.63 404.88 C57.05 407.38 54.69 408.15 51.31 409.23 C49.29 409.89 49.29 409.89 47.5 411.94 C45.29 412.76 43.05 413.4 40.79 414.06 C38.44 414.83 38.44 414.83 36.59 416.48 C33.17 418.88 29.35 418.83 25.28 419.32 C22.5 419.67 22.5 419.67 21.11 421.41 C19.09 423.33 17.7 423.56 14.98 424.04 C14.1 424.2 13.23 424.36 12.33 424.53 C10.96 424.76 10.96 424.76 9.57 425 C7.76 425.32 5.96 425.65 4.16 425.98 C3.37 426.11 2.57 426.25 1.75 426.39 C-0.57 426.96 -2.38 427.87 -4.5 428.94 C-29.62 435.53 -64.41 435.14 -89.5 428.94 C-90.49 428.28 -91.48 427.62 -92.5 426.94 C-95.8 426.25 -99.09 425.69 -102.43 425.17 C-106.96 424.41 -110.38 423.07 -114.5 420.94 C-116.96 420.24 -119.44 419.6 -121.93 419 C-127.4 417.63 -131.78 416.02 -136.5 412.94 C-137.72 412.3 -138.95 411.68 -140.18 411.07 C-140.85 410.74 -141.52 410.41 -142.2 410.07 C-143.91 409.23 -145.61 408.4 -147.32 407.57 C-157.05 402.78 -165.99 397.48 -174.7 391.01 C-176.57 389.63 -178.45 388.27 -180.36 386.93 C-185.57 383.26 -190.19 379.49 -194.6 374.88 C-196.51 372.93 -198.49 371.15 -200.56 369.38 C-207.73 363.17 -213.68 356.43 -219.5 348.94 C-220.14 348.13 -220.79 347.31 -221.45 346.48 C-229.5 336.3 -229.5 336.3 -229.5 332.94 C-230.16 332.94 -230.82 332.94 -231.5 332.94 C-231.79 332.41 -232.08 331.87 -232.38 331.32 C-235.02 326.49 -235.02 326.49 -237.88 321.79 C-245.85 309.39 -250.87 294.86 -255.5 280.94 C-255.9 279.82 -256.31 278.69 -256.73 277.53 C-265.69 250.73 -268.16 219.9 -264.47 192.07 C-264.12 189.45 -263.78 186.82 -263.45 184.2 C-260.7 162.92 -260.7 162.92 -257.41 153.55 C-256.47 150.87 -255.59 148.17 -254.7 145.47 C-251.58 135.96 -248.09 126.84 -243.5 117.94 C-243.02 116.96 -243.02 116.96 -242.53 115.95 C-240.5 111.75 -238.22 107.84 -235.7 103.92 C-234.57 102.07 -233.69 100.23 -232.81 98.25 C-230.06 92.57 -225.89 87.81 -221.99 82.9 C-220.19 80.54 -218.5 78.11 -216.79 75.68 C-212.51 69.77 -207.68 64.63 -202.5 59.5 C-201.58 58.59 -200.67 57.68 -199.73 56.75 C-192.68 49.84 -185.3 43.85 -177.22 38.22 C-174.71 36.36 -172.39 34.31 -170.06 32.23 C-167.74 30.32 -165.21 29.19 -162.5 27.94 C-161.18 27.22 -159.87 26.49 -158.56 25.75 C-139.13 14.93 -119.33 5.77 -97.5 0.94 C-96.15 0.61 -94.8 0.28 -93.45 -0.05 C-63.95 -7.07 -29.37 -8.02 0 0 Z M-70.75 26.82 C-71.56 26.89 -72.38 26.97 -73.22 27.05 C-77.34 27.51 -80.66 28.32 -84.5 29.94 C-88.22 30.73 -91.96 31.39 -95.71 32.06 C-99.58 32.96 -102.88 34.32 -106.5 35.94 C-108.11 36.45 -109.74 36.94 -111.37 37.38 C-116.32 38.83 -120.86 40.71 -125.5 42.94 C-126.67 43.5 -127.85 44.07 -129.07 44.65 C-136.34 47.98 -136.34 47.98 -142.5 52.94 C-143.53 53.35 -144.56 53.77 -145.62 54.19 C-149.72 55.84 -152.84 58.37 -156.25 61.13 C-158.23 62.73 -160.24 64.21 -162.31 65.69 C-177.32 76.92 -191.35 91.24 -201.5 106.94 C-202.68 108.61 -203.87 110.28 -205.06 111.94 C-207.56 115.5 -209.62 119.01 -211.5 122.94 C-212.01 123.58 -212.53 124.22 -213.06 124.88 C-214.73 127.04 -214.73 127.04 -215.5 130.44 C-216.5 133.94 -216.5 133.94 -217.84 135.57 C-220.36 139.18 -221.53 143.18 -222.93 147.32 C-223.24 148.21 -223.55 149.11 -223.86 150.03 C-230.95 170.93 -234.73 191.19 -234.81 213.25 C-234.81 214.02 -234.81 214.78 -234.82 215.57 C-234.83 226.44 -234.23 237.04 -232.68 247.82 C-232.52 248.97 -232.35 250.13 -232.18 251.32 C-231.33 256.65 -230.38 260.34 -227.5 264.94 C-226.76 267.38 -226.1 269.84 -225.5 272.32 C-223.79 279.28 -221.3 285.5 -218.06 291.88 C-215.56 296.81 -215.56 296.81 -214.5 299.01 C-211.82 304.52 -208.72 309.73 -205.5 314.94 C-204.95 315.84 -204.4 316.74 -203.84 317.67 C-199.87 324.08 -195.68 330.44 -190.5 335.94 C-189.84 335.94 -189.18 335.94 -188.5 335.94 C-188.23 336.53 -187.97 337.11 -187.7 337.72 C-185.56 341.66 -182.22 344.55 -179.06 347.69 C-178.34 348.41 -177.62 349.13 -176.87 349.86 C-171.43 355.2 -165.9 359.78 -159.5 363.94 C-158.73 364.46 -157.96 364.97 -157.18 365.5 C-155.7 366.49 -154.22 367.47 -152.74 368.44 C-150.3 370.07 -147.94 371.79 -145.56 373.5 C-140.75 376.88 -135.81 379.46 -130.5 381.94 C-129.4 382.49 -128.3 383.03 -127.16 383.59 C-114.52 389.8 -101.4 394.51 -87.5 396.94 C-87.17 397.27 -86.84 397.6 -86.5 397.94 C-62.16 403.86 -25.99 405.5 -2.5 395.94 C-0.36 395.47 1.79 395.03 3.94 394.63 C12.9 392.77 22.14 390.56 29.5 384.94 C31.72 384.1 31.72 384.1 34 383.44 C37.41 382.37 39.73 381.23 42.5 378.94 C43.39 378.51 44.28 378.08 45.19 377.63 C49.51 375.43 53.71 372.97 57.5 369.94 C57.5 369.28 57.5 368.62 57.5 367.94 C58.34 367.73 59.17 367.52 60.03 367.3 C64.41 365.59 67.48 363.12 71.07 360.13 C72.11 359.26 72.11 359.26 73.18 358.38 C85.4 348.14 97.46 336.54 105.43 322.6 C106.61 320.78 107.96 319.44 109.5 317.94 C112.53 313.84 114.58 309.7 116.48 304.99 C117.5 302.94 117.5 302.94 119.03 301.42 C120.75 299.69 121.26 298.31 122 296 C122.83 293.62 123.45 292.01 125 290 C127.42 286.68 128.3 282.83 129.5 278.94 C130.02 277.42 130.54 275.9 131.07 274.38 C132.06 271.42 132.9 268.47 133.63 265.44 C134.5 261.94 134.5 261.94 135.5 260.94 C136.31 257.66 136.88 254.32 137.5 251 C137.68 250.09 137.86 249.18 138.04 248.24 C144.69 213.2 142.02 166.67 122.94 135.38 C121.7 133.27 120.88 131.44 120.13 129.13 C118.5 124.64 116.12 120.92 113.5 116.94 C112.32 115.05 111.13 113.15 109.94 111.25 C107.66 107.61 105.22 104.27 102.5 100.94 C101.5 99.61 100.5 98.27 99.5 96.94 C88.81 83.23 76.08 69.89 61.53 60.29 C59.5 58.94 59.5 58.94 57 56.82 C53.84 54.45 50.47 52.86 46.91 51.19 C44.55 49.96 42.6 48.57 40.5 46.94 C35.97 44.09 31.73 42.25 26.62 40.66 C24.5 39.94 24.5 39.94 21.57 38.44 C17.36 36.38 13.01 35.19 8.5 33.94 C7.59 33.68 6.67 33.42 5.73 33.16 C0.61 31.73 -4.51 30.44 -9.72 29.37 C-11.5 28.94 -11.5 28.94 -13.5 27.94 C-32.46 25.35 -51.69 24.98 -70.75 26.82 Z " fill="#100F0D" transform="translate(686.49609375,452.05859375)"/>
<path d="M0 0 C0 0.33 0 0.66 0 1 C-0.87 1.18 -0.87 1.18 -1.76 1.37 C-5.22 2.11 -8.58 2.86 -11.94 4 C-14.68 4.89 -17.23 5.43 -20.06 5.94 C-25.67 7.04 -28.78 8.29 -32.19 13.06 C-32.79 14.03 -33.38 15 -34 16 C-34.66 16.66 -35.32 17.32 -36 18 C-38.16 24.25 -38.29 30.67 -38.27 37.21 C-38.27 38.7 -38.27 38.7 -38.28 40.22 C-38.29 43.55 -38.29 46.88 -38.29 50.2 C-38.3 52.62 -38.31 55.03 -38.31 57.44 C-38.33 62.68 -38.34 67.92 -38.34 73.16 C-38.35 80.96 -38.37 88.75 -38.39 96.55 C-38.42 110.47 -38.44 124.39 -38.46 138.31 C-38.48 150.5 -38.5 162.69 -38.52 174.87 C-38.52 175.68 -38.52 176.49 -38.52 177.32 C-38.53 180.61 -38.54 183.89 -38.54 187.17 C-38.6 217.96 -38.65 248.75 -38.69 279.54 C-38.73 306.89 -38.78 334.23 -38.83 361.57 C-38.9 392.3 -38.95 423.03 -39 453.76 C-39.01 457.04 -39.01 460.31 -39.02 463.59 C-39.02 464.4 -39.02 465.2 -39.02 466.04 C-39.04 478.21 -39.06 490.39 -39.09 502.56 C-39.12 516.41 -39.14 530.26 -39.15 544.11 C-39.16 551.86 -39.17 559.6 -39.19 567.35 C-39.21 573.14 -39.21 578.93 -39.21 584.72 C-39.22 587.06 -39.22 589.4 -39.23 591.73 C-40.43 610.78 -40.43 610.78 -34.69 628.06 C-33.8 628.7 -32.91 629.34 -32 630 C-31.2 630.72 -30.39 631.44 -29.56 632.19 C-24.95 635.45 -20.49 636.25 -14.92 636.25 C-13.11 636.26 -13.11 636.26 -11.26 636.27 C-9.94 636.26 -8.62 636.26 -7.26 636.25 C-5.84 636.26 -4.41 636.26 -2.98 636.26 C0.95 636.27 4.88 636.27 8.82 636.26 C13.09 636.26 17.37 636.27 21.64 636.27 C29.13 636.28 36.63 636.28 44.13 636.28 C55.27 636.27 66.42 636.28 77.56 636.29 C98.63 636.3 119.69 636.3 140.75 636.3 C157.01 636.3 173.28 636.3 189.54 636.31 C191.87 636.31 194.21 636.31 196.54 636.31 C200.06 636.31 203.58 636.31 207.1 636.31 C239.81 636.32 272.53 636.32 305.25 636.32 C307.1 636.32 307.1 636.32 308.99 636.32 C315.24 636.32 321.5 636.32 327.75 636.32 C329.61 636.32 329.61 636.32 331.51 636.32 C334.03 636.32 336.54 636.32 339.05 636.32 C378.14 636.31 417.24 636.32 456.33 636.34 C500.23 636.36 544.12 636.37 588.02 636.36 C592.7 636.36 597.38 636.36 602.06 636.36 C603.21 636.36 604.36 636.36 605.55 636.36 C622.96 636.36 640.37 636.37 657.78 636.38 C677.57 636.39 697.37 636.39 717.16 636.38 C728.24 636.37 739.33 636.37 750.41 636.39 C757.81 636.4 765.21 636.39 772.6 636.38 C776.82 636.38 781.04 636.37 785.26 636.39 C789.1 636.4 792.94 636.39 796.77 636.38 C798.8 636.37 800.83 636.39 802.86 636.4 C810.65 636.35 818.23 636.19 824.41 630.96 C824.96 630.25 825.5 629.54 826.06 628.81 C826.92 627.74 826.92 627.74 827.79 626.64 C828.39 625.83 828.39 625.83 829 625 C828.67 624.34 828.34 623.68 828 623 C828.66 623 829.32 623 830 623 C830.13 567.18 830.26 511.36 830.37 455.55 C830.37 454.72 830.37 453.89 830.38 453.04 C830.41 435.08 830.45 417.11 830.48 399.14 C830.5 390.33 830.52 381.52 830.54 372.71 C830.54 371.84 830.54 370.96 830.54 370.06 C830.6 341.66 830.66 313.26 830.73 284.86 C830.8 255.66 830.86 226.47 830.91 197.28 C830.92 193.15 830.93 189.02 830.94 184.9 C830.94 184.08 830.94 183.27 830.94 182.43 C830.97 169.38 831 156.32 831.03 143.27 C831.07 130.13 831.09 117 831.11 103.86 C831.12 96.06 831.14 88.27 831.17 80.47 C831.19 74.64 831.19 68.8 831.2 62.97 C831.2 60.62 831.21 58.26 831.22 55.91 C832.61 32.64 832.61 32.64 824.62 12.06 C819.99 7.55 816.43 5.9 810.06 5 C806.06 4.43 802.72 3.56 799 2 C797.01 1.62 795.01 1.28 793 1 C793 0.67 793 0.34 793 0 C817.12 -2 817.12 -2 825.94 4 C826.62 4.66 827.3 5.32 828 6 C828.46 6.42 828.93 6.83 829.4 7.26 C831.53 9.58 833.02 12.1 834.62 14.81 C835.24 15.83 835.85 16.85 836.48 17.89 C839.46 23.98 839.14 30.31 839.13 36.94 C839.13 38.45 839.13 38.45 839.14 39.98 C839.14 43.35 839.14 46.72 839.14 50.1 C839.14 52.53 839.15 54.97 839.15 57.41 C839.16 63.41 839.16 69.41 839.16 75.42 C839.16 82.61 839.17 89.8 839.17 96.99 C839.19 114.37 839.2 131.75 839.2 149.13 C839.2 157.35 839.21 165.57 839.21 173.79 C839.22 201.92 839.23 230.06 839.24 258.2 C839.24 259.96 839.24 261.73 839.24 263.5 C839.24 265.27 839.24 267.04 839.24 268.81 C839.24 272.36 839.24 275.91 839.24 279.46 C839.24 280.34 839.24 281.22 839.24 282.13 C839.24 310.69 839.26 339.25 839.28 367.81 C839.31 398.01 839.32 428.2 839.32 458.4 C839.32 461.71 839.32 465.03 839.32 468.34 C839.32 469.16 839.32 469.97 839.32 470.81 C839.32 483.95 839.34 497.09 839.35 510.22 C839.36 523.42 839.37 536.62 839.36 549.82 C839.36 557.67 839.36 565.51 839.38 573.35 C839.39 579.21 839.38 585.06 839.37 590.91 C839.37 593.28 839.37 595.65 839.38 598.02 C839.39 601.24 839.38 604.46 839.37 607.68 C839.38 608.6 839.39 609.53 839.39 610.48 C839.3 621.77 835.34 629.54 827.49 637.54 C819.15 644.98 811.74 645.58 801 645.51 C799.56 645.52 798.13 645.52 796.7 645.53 C792.77 645.55 788.83 645.54 784.89 645.53 C780.61 645.53 776.33 645.54 772.05 645.55 C764.54 645.57 757.04 645.58 749.54 645.57 C738.38 645.56 727.22 645.58 716.06 645.6 C694.96 645.63 673.87 645.64 652.78 645.64 C636.5 645.64 620.21 645.64 603.92 645.65 C601.58 645.65 599.25 645.66 596.91 645.66 C595.75 645.66 594.58 645.66 593.39 645.66 C591.64 645.66 591.64 645.66 589.86 645.66 C588.12 645.66 588.12 645.66 586.33 645.66 C553.56 645.68 520.79 645.7 488.01 645.69 C486.16 645.69 486.16 645.69 484.27 645.69 C478 645.69 471.74 645.69 465.48 645.69 C463.61 645.69 463.61 645.69 461.71 645.69 C459.19 645.69 456.67 645.69 454.16 645.69 C415.01 645.68 375.87 645.7 336.72 645.75 C292.75 645.8 248.78 645.83 204.81 645.82 C200.12 645.82 195.43 645.82 190.75 645.82 C189.59 645.82 188.44 645.82 187.25 645.82 C169.82 645.82 152.39 645.84 134.95 645.86 C115.13 645.89 95.31 645.9 75.48 645.87 C64.39 645.86 53.29 645.86 42.2 645.9 C34.78 645.92 27.37 645.91 19.96 645.89 C15.74 645.87 11.52 645.87 7.29 645.9 C3.45 645.92 -0.4 645.91 -4.25 645.88 C-6.27 645.87 -8.3 645.9 -10.32 645.92 C-21.33 645.77 -30.15 641.97 -38.12 634.31 C-39.1 633.22 -40.06 632.12 -41 631 C-41.9 630.07 -41.9 630.07 -42.81 629.12 C-46.42 622.67 -46.29 614.88 -46.25 607.69 C-46.25 606.68 -46.26 605.68 -46.26 604.64 C-46.27 601.27 -46.26 597.91 -46.25 594.54 C-46.26 592.1 -46.26 589.66 -46.26 587.22 C-46.27 581.92 -46.27 576.62 -46.27 571.32 C-46.26 563.44 -46.26 555.55 -46.27 547.67 C-46.28 533.59 -46.28 519.51 -46.27 505.42 C-46.27 493.1 -46.27 480.78 -46.27 468.46 C-46.27 467.64 -46.27 466.82 -46.27 465.98 C-46.27 462.66 -46.27 459.34 -46.27 456.03 C-46.28 424.9 -46.27 393.77 -46.26 362.65 C-46.25 334.99 -46.25 307.34 -46.26 279.69 C-46.27 248.62 -46.28 217.55 -46.27 186.48 C-46.27 183.17 -46.27 179.86 -46.27 176.54 C-46.27 175.73 -46.27 174.91 -46.27 174.07 C-46.26 161.76 -46.27 149.44 -46.27 137.13 C-46.28 123.12 -46.28 109.12 -46.27 95.12 C-46.26 87.28 -46.26 79.45 -46.27 71.61 C-46.27 65.76 -46.27 59.91 -46.26 54.06 C-46.26 51.69 -46.26 49.33 -46.26 46.96 C-46.27 43.74 -46.26 40.53 -46.25 37.31 C-46.26 36.39 -46.26 35.47 -46.27 34.52 C-46.22 26.33 -45.72 19.22 -40 13 C-39.36 11.99 -38.72 10.98 -38.06 9.94 C-28.89 -3.13 -14.08 -1.32 0 0 Z " fill="#020202" transform="translate(243,367)"/>
<path d="M0 0 C5.25 0.31 9.4 1.57 14 4 C15.78 6.78 16.25 8.93 16.25 12.2 C16.25 13.04 16.26 13.88 16.26 14.74 C16.26 15.66 16.25 16.58 16.24 17.52 C16.25 18.99 16.25 18.99 16.25 20.49 C16.26 23.8 16.25 27.12 16.24 30.43 C16.24 32.82 16.24 35.2 16.24 37.59 C16.24 42.8 16.24 48 16.23 53.21 C16.21 60.95 16.21 68.69 16.21 76.43 C16.21 91.87 16.19 107.3 16.17 122.74 C16.17 123.93 16.17 123.93 16.17 125.16 C16.16 126.36 16.16 126.36 16.16 127.59 C16.15 136.46 16.14 145.33 16.13 154.2 C16.11 180.98 16.08 207.76 16.03 234.55 C16.03 235.83 16.03 235.83 16.03 237.14 C16.02 240.62 16.02 244.09 16.01 247.56 C16.01 250.17 16 252.79 16 255.4 C16 256.27 16 257.13 15.99 258.02 C15.95 285.17 15.93 312.32 15.91 339.47 C15.9 369.95 15.87 400.44 15.82 430.92 C15.82 434.17 15.81 437.42 15.8 440.67 C15.8 441.87 15.8 441.87 15.8 443.09 C15.78 455.98 15.77 468.87 15.78 481.76 C15.78 494.71 15.76 507.66 15.72 520.6 C15.7 528.3 15.69 536 15.7 543.7 C15.71 549.43 15.69 555.17 15.66 560.91 C15.66 563.24 15.66 565.57 15.67 567.9 C15.68 571.05 15.66 574.2 15.64 577.35 C15.65 578.27 15.66 579.18 15.67 580.13 C15.6 584.45 15.46 586.39 12.77 589.92 C7.73 593.71 3.95 595.55 -2.36 596.17 C-3.13 596.25 -3.91 596.33 -4.7 596.41 C-17.07 597.53 -29.53 597.28 -41.95 597.26 C-45.88 597.25 -49.81 597.26 -53.75 597.26 C-60.63 597.27 -67.51 597.27 -74.38 597.27 C-84.62 597.26 -94.85 597.26 -105.08 597.27 C-123.36 597.28 -141.64 597.28 -159.92 597.27 C-175.92 597.27 -191.93 597.27 -207.93 597.27 C-209 597.27 -210.06 597.27 -211.15 597.27 C-215.47 597.27 -219.79 597.27 -224.1 597.27 C-264.58 597.28 -305.05 597.27 -345.53 597.26 C-381.43 597.25 -417.34 597.25 -453.24 597.26 C-493.63 597.27 -534.01 597.28 -574.39 597.27 C-578.7 597.27 -583.02 597.27 -587.33 597.27 C-588.39 597.27 -589.45 597.27 -590.54 597.27 C-606.53 597.26 -622.51 597.27 -638.49 597.27 C-656.68 597.28 -674.88 597.28 -693.07 597.27 C-703.23 597.26 -713.39 597.26 -723.56 597.27 C-730.37 597.27 -737.18 597.27 -744 597.26 C-747.86 597.26 -751.73 597.25 -755.59 597.26 C-770.05 597.29 -784.51 597.17 -798.96 596.46 C-800.92 596.36 -802.89 596.29 -804.86 596.23 C-812.64 595.77 -818.18 594.4 -824 589 C-828.93 579.13 -826.15 561.8 -826.14 551.02 C-826.14 548.68 -826.15 546.34 -826.15 544.01 C-826.16 538.27 -826.16 532.54 -826.16 526.81 C-826.16 519.93 -826.17 513.06 -826.17 506.19 C-826.19 489.59 -826.2 472.99 -826.2 456.4 C-826.2 448.55 -826.21 440.69 -826.21 432.84 C-826.22 405.96 -826.23 379.07 -826.24 352.19 C-826.24 350.51 -826.24 348.82 -826.24 347.13 C-826.24 345.45 -826.24 343.76 -826.24 342.07 C-826.24 338.68 -826.24 335.29 -826.24 331.9 C-826.24 331.06 -826.24 330.22 -826.24 329.35 C-826.24 302.07 -826.26 274.79 -826.28 247.51 C-826.31 218.65 -826.32 189.8 -826.32 160.95 C-826.32 157.78 -826.32 154.62 -826.32 151.45 C-826.32 150.67 -826.32 149.89 -826.32 149.09 C-826.32 136.54 -826.34 123.99 -826.35 111.43 C-826.36 98.83 -826.37 86.23 -826.36 73.63 C-826.36 66.8 -826.36 59.97 -826.37 53.14 C-826.38 46.89 -826.38 40.65 -826.37 34.4 C-826.37 32.14 -826.37 29.87 -826.38 27.61 C-826.39 24.54 -826.38 21.47 -826.37 18.4 C-826.38 17.51 -826.39 16.62 -826.39 15.71 C-826.36 11.07 -826.27 7.6 -823 4 C-819.81 2.69 -819.81 2.69 -817 2 C-817 3.23 -817 4.47 -817 5.74 C-817.05 60.14 -817.1 114.54 -817.13 168.95 C-817.13 169.77 -817.13 170.59 -817.13 171.44 C-817.14 189.32 -817.15 207.21 -817.15 225.09 C-817.16 233.86 -817.16 242.63 -817.16 251.4 C-817.17 252.27 -817.17 253.15 -817.17 254.05 C-817.18 282.36 -817.2 310.67 -817.23 338.98 C-817.26 368.06 -817.28 397.14 -817.28 426.23 C-817.28 430.33 -817.28 434.43 -817.28 438.54 C-817.28 439.34 -817.29 440.15 -817.29 440.98 C-817.29 454.01 -817.3 467.03 -817.32 480.06 C-817.34 493.14 -817.34 506.22 -817.34 519.3 C-817.34 527.08 -817.34 534.86 -817.36 542.64 C-817.37 548.43 -817.37 554.23 -817.36 560.02 C-817.36 562.38 -817.37 564.73 -817.37 567.09 C-817.39 570.27 -817.38 573.45 -817.37 576.63 C-817.38 577.57 -817.38 578.5 -817.39 579.46 C-817.38 580.72 -817.38 580.72 -817.37 582.01 C-817.37 582.74 -817.37 583.46 -817.37 584.21 C-817.13 586.42 -817.13 586.42 -814 588 C-811.38 588.3 -811.38 588.3 -808.37 588.25 C-807.19 588.25 -806.01 588.26 -804.79 588.26 C-803.48 588.26 -802.17 588.25 -800.82 588.25 C-799.42 588.25 -798.02 588.25 -796.62 588.25 C-792.74 588.26 -788.86 588.25 -784.98 588.24 C-780.77 588.24 -776.56 588.24 -772.35 588.25 C-764.97 588.25 -757.58 588.25 -750.19 588.24 C-739.21 588.23 -728.23 588.23 -717.24 588.23 C-698.77 588.23 -680.3 588.22 -661.82 588.21 C-643.52 588.2 -625.22 588.19 -606.93 588.19 C-605.79 588.19 -604.65 588.19 -603.48 588.19 C-597.71 588.19 -591.94 588.19 -586.17 588.19 C-545.25 588.18 -504.34 588.17 -463.43 588.15 C-423.68 588.13 -383.93 588.12 -344.18 588.11 C-341.68 588.11 -339.18 588.11 -336.68 588.11 C-316.38 588.1 -296.08 588.1 -275.78 588.1 C-181.85 588.08 -87.93 588.04 6 588 C6 395.94 6 203.88 6 6 C2.04 4.02 2.04 4.02 -2 2 C-1.34 1.34 -0.68 0.68 0 0 Z " fill="#030303" transform="translate(1045,393)"/>
<path d="M0 0 C0.99 0 1.98 0 3 0 C1.56 5.47 -2.24 8.33 -6.31 11.94 C-10.92 16.06 -15.16 20.14 -19 25 C-17.26 25.87 -17.26 25.87 -15 26 C-12.36 24.11 -12.36 24.11 -10 22 C-9.34 22 -8.68 22 -8 22 C-7.77 21.43 -7.55 20.86 -7.31 20.27 C-5.64 17.38 -3.62 15.81 -1 13.75 C0.33 12.69 0.33 12.69 1.69 11.61 C4 10 4 10 6 10 C6 10.66 6 11.32 6 12 C4.47 13.51 4.47 13.51 2.5 15.12 C1.85 15.66 1.2 16.2 0.53 16.76 C0.03 17.17 -0.48 17.58 -1 18 C-0.01 18.99 0.98 19.98 2 21 C4.31 19.02 6.62 17.04 9 15 C9 15.99 9 16.98 9 18 C6.96 19.83 4.91 21.51 2.75 23.19 C-1.74 26.8 -4.98 29.67 -7.11 35.14 C-8.83 38.74 -11.89 41.55 -15 44 C-15.66 44 -16.32 44 -17 44 C-17.28 44.58 -17.56 45.15 -17.84 45.75 C-19.32 48.62 -21.04 51.29 -22.78 54 C-24.02 55.95 -24.02 55.95 -24.94 57.94 C-26.71 61.38 -29.08 64.42 -31.34 67.56 C-32.78 69.68 -33.92 71.68 -35 74 C-35.59 75.23 -35.59 75.23 -36.18 76.48 C-38.51 81.5 -40.59 86.47 -42.25 91.75 C-43.35 95.05 -44.69 98.24 -46.04 101.45 C-48.1 106.93 -49.36 112.5 -50.44 118.25 C-51.29 122.69 -52.25 127.04 -53.56 131.38 C-58.57 149.33 -57.97 169.11 -56.19 187.5 C-56.12 188.26 -56.05 189.02 -55.98 189.8 C-55.42 194.67 -53.98 198.48 -52 203 C-51.48 206.11 -51.48 206.11 -51.19 209.31 C-49.42 222.86 -44.41 234.98 -37.74 246.81 C-36.38 249.3 -35.35 251.51 -34.5 254.19 C-30.43 266.16 -20 277.12 -12.41 287.12 C-11.48 288.36 -10.57 289.61 -9.68 290.88 C-6.56 295.28 -3.06 299.13 0.75 302.94 C1.23 303.42 1.72 303.91 2.22 304.41 C4.87 307.03 4.87 307.03 8 309 C8 309.66 8 310.32 8 311 C9.11 311.14 9.11 311.14 10.24 311.29 C13.39 312.1 14.77 313.18 17.12 315.38 C17.79 315.98 18.45 316.59 19.13 317.21 C21 319 21 319 22.33 320.52 C24.81 322.72 27.63 323.89 30.62 325.31 C34.74 327.3 38.67 329.32 42.38 332 C52.6 339.08 64.98 342.8 76.71 346.58 C81.66 348.19 86.48 350.07 91.3 352.02 C95.74 353.63 99.93 354.11 104.62 354.38 C110.37 354.77 115.96 355.6 121.62 356.56 C127.77 357.6 133.62 358.31 139.87 358.01 C142 358 142 358 144.1 358.55 C147.05 359.25 149.21 358.02 152 357 C153.67 356.66 155.33 356.33 157 356 C158.08 355.66 159.15 355.32 160.26 354.98 C163.87 354.03 166.72 353.87 170.44 353.88 C180.92 353.31 190.37 349.48 200.18 345.98 C203.37 344.87 206.58 343.9 209.82 342.96 C217.17 340.81 223.51 338.03 230 334 C230.56 333.66 231.12 333.32 231.7 332.97 C238.32 328.93 244.6 324.78 250.33 319.5 C253.12 317 256.14 314.38 259.88 313.61 C268.47 311.13 276.01 301.22 282 295 C282 298.88 280.42 299.94 277.78 302.58 C277.19 303.15 276.61 303.72 276 304.31 C275.41 304.89 274.82 305.48 274.21 306.07 C270.06 310.12 265.79 313.71 261 317 C262.98 318.49 262.98 318.49 265 320 C264 322 264 322 262 325 C261.32 326.33 260.65 327.66 260 329 C259.34 329 258.68 329 258 329 C257.67 330.65 257.34 332.3 257 334 C260.9 333.88 262.7 332.56 265.31 329.88 C265.82 329.32 266.34 328.76 266.86 328.18 C268.69 326.31 270.55 324.64 272.53 322.95 C277.47 318.66 282.11 314.08 286.73 309.46 C288.19 308 289.66 306.55 291.13 305.09 C295.91 300.34 300.32 295.67 304 290 C304.66 290.66 305.32 291.32 306 292 C305.43 292.63 304.86 293.26 304.28 293.91 C303.51 294.76 302.73 295.62 301.94 296.5 C300.81 297.75 300.81 297.75 299.65 299.03 C298.23 300.63 296.81 302.23 295.42 303.85 C291.15 308.83 286.61 313.4 281.81 317.88 C281.11 318.54 280.42 319.2 279.7 319.88 C279.02 320.52 278.34 321.15 277.64 321.8 C276.74 322.66 276.74 322.66 275.81 323.52 C274 325 274 325 271.83 326.08 C269.84 326.85 269.84 326.85 269.06 328.88 C265.71 335.56 255.65 339.95 249.34 343.62 C246.53 345.27 243.81 347.04 241.08 348.82 C238.79 350.12 236.43 351.12 234.01 352.13 C231.81 353.08 229.66 354.11 227.51 355.16 C226.72 355.54 225.93 355.92 225.12 356.32 C223.51 357.1 221.9 357.89 220.29 358.68 C214.65 361.41 209.03 363.33 203 365 C201.52 365.45 200.03 365.9 198.55 366.35 C197.14 366.78 195.73 367.2 194.31 367.62 C193.25 367.95 193.25 367.95 192.17 368.28 C185.61 370.24 179.43 371.12 172.56 370.94 C165.93 370.88 159.47 371.37 152.88 372 C133.37 373.76 113.98 373.55 94.5 371.69 C93.22 371.57 91.95 371.45 90.63 371.33 C89.44 371.21 88.26 371.08 87.03 370.95 C85.99 370.84 84.94 370.73 83.86 370.62 C80.72 369.94 78.68 368.73 76 367 C74.08 366.54 72.14 366.15 70.19 365.81 C62.35 364.15 55.84 360.66 48.83 356.93 C47.11 356.06 45.33 355.29 43.55 354.53 C39.41 352.75 35.47 350.69 31.5 348.56 C30.42 347.99 30.42 347.99 29.32 347.4 C19.4 342.12 10 337.03 3 328 C-1.91 323.32 -7.26 319.15 -12.61 314.99 C-20.88 308.1 -27.34 299.34 -33.66 290.69 C-35.11 288.78 -35.11 288.78 -37.62 286.56 C-39.86 284.15 -40.63 282.77 -41.81 279.81 C-43.32 276.08 -45.13 273.56 -47.81 270.56 C-53.82 263.44 -57.85 253.39 -59.5 244.21 C-60.11 241.52 -61.33 240.17 -63 238 C-63.94 235.92 -64.81 233.82 -65.62 231.69 C-66.05 230.6 -66.48 229.51 -66.91 228.39 C-68.03 224.91 -68.5 221.61 -69 218 C-69.64 215.91 -70.31 213.82 -71 211.75 C-73.43 203.59 -73.72 195.56 -73.86 187.09 C-73.96 184.94 -73.96 184.94 -74.5 182.61 C-78.3 162.75 -77.27 132.36 -69.8 113.48 C-68.86 110.56 -68.96 108.06 -69 105 C-68.02 102.99 -67.02 100.99 -66 99 C-65.58 97.38 -65.19 95.75 -64.81 94.12 C-62.55 85.3 -58.04 76.56 -53 69 C-52.34 69 -51.68 69 -51 69 C-50.92 68.18 -50.84 67.36 -50.76 66.51 C-49.82 62.15 -48.02 58.76 -45.88 54.88 C-45.47 54.13 -45.07 53.39 -44.65 52.62 C-43.44 50.41 -42.22 48.2 -41 46 C-40.66 45.38 -40.32 44.76 -39.97 44.12 C-33.99 33.24 -33.99 33.24 -29 29 C-28.47 28.53 -27.93 28.07 -27.38 27.59 C-25.05 25.56 -22.69 23.57 -20.31 21.6 C-15.99 17.98 -12.04 14.07 -8.09 10.04 C-6 8 -6 8 -3 5.69 C-0.8 3.83 -0.3 2.83 0 0 Z " fill="#100F0D" transform="translate(503,502)"/>
<path d="M0 0 C3.21 0.86 6.35 1.48 9.63 2 C13.95 2.75 17.5 4.12 21.5 5.94 C23.27 6.52 25.04 7.08 26.82 7.63 C46.77 14.21 65.58 24.51 82.26 37.24 C84 38.56 85.74 39.85 87.5 41.14 C88.55 41.92 89.61 42.7 90.69 43.5 C91.67 44.23 92.66 44.95 93.67 45.7 C96.52 47.95 98.97 50.34 101.5 52.94 C102.82 54.23 104.14 55.51 105.46 56.8 C119.4 70.43 119.4 70.43 123.97 77.62 C125.81 80.4 127.91 82.85 130.07 85.38 C133.58 89.63 136.32 93.83 138.84 98.72 C141.37 103.62 144.11 108.41 146.81 113.22 C148.06 115.45 149.29 117.69 150.5 119.94 C151.14 121.11 151.14 121.11 151.78 122.3 C155.12 128.69 157.44 135.19 159.57 142.07 C159.91 143.18 160.26 144.29 160.61 145.43 C161.59 148.6 162.55 151.77 163.5 154.94 C163.84 156.04 163.84 156.04 164.19 157.15 C171.72 181.73 174.07 209.78 170.69 235.19 C170.51 236.65 170.33 238.12 170.15 239.58 C169.64 243.71 169.08 247.82 168.5 251.94 C168.37 252.98 168.24 254.02 168.1 255.09 C166.86 263.71 164.22 271.79 161.44 280 C161.2 280.73 160.96 281.45 160.71 282.2 C156.78 293.86 152.36 305.1 146.5 315.94 C146.08 316.74 145.65 317.54 145.21 318.36 C141.77 324.67 141.77 324.67 139.5 326.94 C139.22 327.7 138.93 328.47 138.63 329.25 C137.34 332.32 135.58 334.35 133.5 336.94 C132.46 338.62 131.44 340.31 130.44 342 C126.89 347.67 122.7 352.35 118.12 357.17 C116.04 359.38 114.07 361.61 112.13 363.94 C102.3 375.26 90.21 384.84 77.89 393.27 C75.61 394.87 73.44 396.54 71.25 398.25 C68.13 400.64 65.26 401.75 61.5 402.94 C60.58 403.9 60.58 403.9 59.63 404.88 C57.05 407.38 54.69 408.15 51.31 409.23 C49.29 409.89 49.29 409.89 47.5 411.94 C45.29 412.76 43.05 413.4 40.79 414.06 C38.44 414.83 38.44 414.83 36.59 416.48 C33.17 418.88 29.35 418.83 25.28 419.32 C22.5 419.67 22.5 419.67 21.11 421.41 C19.09 423.33 17.7 423.56 14.98 424.04 C14.1 424.2 13.23 424.36 12.33 424.53 C10.96 424.76 10.96 424.76 9.57 425 C7.76 425.32 5.96 425.65 4.16 425.98 C3.37 426.11 2.57 426.25 1.75 426.39 C-0.57 426.96 -2.38 427.87 -4.5 428.94 C-29.62 435.53 -64.41 435.14 -89.5 428.94 C-90.49 428.28 -91.48 427.62 -92.5 426.94 C-95.8 426.25 -99.09 425.69 -102.43 425.17 C-106.96 424.41 -110.38 423.07 -114.5 420.94 C-116.96 420.24 -119.44 419.6 -121.93 419 C-127.4 417.63 -131.78 416.02 -136.5 412.94 C-137.72 412.3 -138.95 411.68 -140.18 411.07 C-140.85 410.74 -141.52 410.41 -142.2 410.07 C-143.91 409.23 -145.61 408.4 -147.32 407.57 C-157.05 402.78 -165.99 397.48 -174.7 391.01 C-176.57 389.63 -178.45 388.27 -180.36 386.93 C-185.57 383.26 -190.19 379.49 -194.6 374.88 C-196.51 372.93 -198.49 371.15 -200.56 369.38 C-207.73 363.17 -213.68 356.43 -219.5 348.94 C-220.14 348.13 -220.79 347.31 -221.45 346.48 C-229.5 336.3 -229.5 336.3 -229.5 332.94 C-230.16 332.94 -230.82 332.94 -231.5 332.94 C-231.79 332.41 -232.08 331.87 -232.38 331.32 C-235.02 326.49 -235.02 326.49 -237.88 321.79 C-245.85 309.39 -250.87 294.86 -255.5 280.94 C-255.9 279.82 -256.31 278.69 -256.73 277.53 C-265.69 250.73 -268.16 219.9 -264.47 192.07 C-264.12 189.45 -263.78 186.82 -263.45 184.2 C-260.7 162.92 -260.7 162.92 -257.41 153.55 C-256.47 150.87 -255.59 148.17 -254.7 145.47 C-251.58 135.96 -248.09 126.84 -243.5 117.94 C-243.02 116.96 -243.02 116.96 -242.53 115.95 C-240.5 111.75 -238.22 107.84 -235.7 103.92 C-234.57 102.07 -233.69 100.23 -232.81 98.25 C-230.06 92.57 -225.89 87.81 -221.99 82.9 C-220.19 80.54 -218.5 78.11 -216.79 75.68 C-212.51 69.77 -207.68 64.63 -202.5 59.5 C-201.58 58.59 -200.67 57.68 -199.73 56.75 C-192.68 49.84 -185.3 43.85 -177.22 38.22 C-174.71 36.36 -172.39 34.31 -170.06 32.23 C-167.74 30.32 -165.21 29.19 -162.5 27.94 C-161.18 27.22 -159.87 26.49 -158.56 25.75 C-139.13 14.93 -119.33 5.77 -97.5 0.94 C-96.15 0.61 -94.8 0.28 -93.45 -0.05 C-63.95 -7.07 -29.37 -8.02 0 0 Z M-55.08 3.69 C-58.73 3.96 -62.33 3.98 -66 3.94 C-74.93 3.88 -83.69 4.4 -92.5 5.94 C-93.42 6.09 -94.35 6.23 -95.31 6.38 C-96.03 6.56 -96.75 6.75 -97.5 6.94 C-97.83 7.6 -98.16 8.26 -98.5 8.94 C-100.39 9.21 -102.29 9.47 -104.19 9.68 C-111.15 10.48 -116.6 12.38 -122.77 15.66 C-125.76 17.06 -128.7 17.97 -131.87 18.88 C-144.71 22.67 -154.88 29.48 -165.03 38.09 C-167.5 39.94 -169.64 40.83 -172.5 41.94 C-174.45 43.18 -176.37 44.47 -178.25 45.82 C-179.69 46.83 -179.69 46.83 -181.17 47.87 C-183.67 50.1 -183.88 50.82 -184.5 53.94 C-185.92 55.44 -185.92 55.44 -187.81 56.94 C-192.27 60.64 -196.28 64.68 -200.28 68.85 C-202.88 71.52 -205.16 73.35 -208.5 74.94 C-210.32 76.74 -210.32 76.74 -212 78.82 C-213.78 80.95 -215.53 82.98 -217.55 84.91 C-219.6 87.05 -220.81 89.01 -222.18 91.63 C-222.69 92.58 -223.19 93.54 -223.7 94.52 C-224.29 95.65 -224.89 96.78 -225.5 97.94 C-226.29 99.4 -227.09 100.85 -227.88 102.3 C-228.71 103.83 -229.54 105.35 -230.37 106.88 C-230.98 107.98 -230.98 107.98 -231.6 109.1 C-231.98 109.8 -232.35 110.5 -232.74 111.22 C-233.08 111.84 -233.42 112.46 -233.77 113.1 C-234.74 115.23 -234.74 115.23 -234.5 118.94 C-235.98 119.44 -235.98 119.44 -237.5 119.94 C-238.96 122.45 -240.25 124.89 -241.5 127.5 C-241.84 128.2 -242.18 128.89 -242.54 129.6 C-245.58 135.83 -247.99 142.22 -250.12 148.82 C-250.82 150.96 -251.49 152.92 -252.5 154.94 C-252.43 155.89 -252.37 156.84 -252.31 157.82 C-252.24 161.37 -253.17 164.04 -254.43 167.36 C-256.72 174.05 -257.38 180.4 -257.75 187.44 C-257.82 188.68 -257.9 189.92 -257.97 191.2 C-259.88 213.25 -259.88 213.25 -257.5 234.94 C-257.42 237.02 -257.35 239.1 -257.31 241.19 C-257.08 250.44 -255.59 258.45 -252.65 267.21 C-251.5 270.94 -251.5 270.94 -251.03 274.46 C-250.41 278.48 -249.11 281.7 -247.43 285.38 C-247.15 286.02 -246.87 286.65 -246.58 287.31 C-245.89 288.86 -245.2 290.4 -244.5 291.94 C-244.17 291.94 -243.84 291.94 -243.5 291.94 C-243.27 292.75 -243.03 293.56 -242.8 294.4 C-239.3 306.27 -235.16 315.44 -227.5 325.21 C-225.85 327.47 -224.72 329.29 -223.75 331.88 C-222.26 335.52 -220.33 337.24 -217.5 339.94 C-216.6 341.07 -215.73 342.22 -214.87 343.38 C-214.12 344.4 -214.12 344.4 -213.34 345.44 C-212.34 346.8 -211.33 348.17 -210.33 349.54 C-204.88 357 -199.79 363.03 -192 368.2 C-188.96 370.31 -186.52 372.74 -183.98 375.42 C-182.38 377.13 -182.38 377.13 -179.81 379.07 C-177.5 380.94 -177.5 380.94 -175.81 383.25 C-169.35 390.76 -160.1 394.83 -151.33 399.05 C-148.73 400.3 -146.23 401.64 -143.74 403.09 C-140.8 404.77 -137.95 405.92 -134.77 407.03 C-132.04 408.12 -129.53 409.49 -126.93 410.88 C-120.98 413.94 -115.13 415.56 -108.65 417.08 C-105.5 417.94 -105.5 417.94 -102.5 419.94 C-98.08 420.78 -93.59 421.13 -89.12 421.57 C-88.46 421.63 -87.79 421.7 -87.11 421.76 C-67.05 423.7 -47.11 423.52 -27.05 421.65 C-21.3 421.12 -15.71 420.89 -9.93 421.07 C-1.62 421.16 5.64 419.35 13.5 416.94 C14.32 416.7 15.14 416.46 15.98 416.21 C27.26 412.85 37.6 408.76 47.84 402.96 C51.29 401.01 54.85 399.48 58.5 397.94 C65.35 394.36 71.81 390.18 78.13 385.75 C78.73 385.34 79.34 384.92 79.96 384.49 C83.14 382.22 84.87 380.44 86.5 376.94 C87.82 376.24 89.16 375.58 90.5 374.94 C91.97 373.59 93.38 372.19 94.75 370.75 C97.56 367.88 100.36 365.14 103.44 362.57 C109.74 357.15 115.57 350.9 120.32 344.07 C122.5 340.94 122.5 340.94 124.94 338.69 C128.09 335.32 129.86 331.69 131.98 327.62 C133.3 325.29 134.53 323.65 136.38 321.75 C146.1 311.14 151.33 294.02 155.61 280.63 C156.5 277.94 156.5 277.94 157.53 275.54 C158.73 272.35 159.33 269.23 159.94 265.88 C160.13 264.86 160.13 264.86 160.32 263.81 C161.79 255.64 162.98 247.42 164.16 239.2 C164.42 237.5 164.72 235.81 165.05 234.12 C165.56 230.56 165.55 227.22 165.45 223.62 C165.44 222.93 165.42 222.24 165.4 221.52 C165.34 219.29 165.27 217.05 165.19 214.82 C165.17 214.05 165.14 213.28 165.11 212.49 C164.94 207.31 164.73 202.12 164.5 196.94 C164.46 195.91 164.41 194.88 164.37 193.81 C163.67 179.95 160.22 167.01 156.32 153.73 C155.65 151.43 155 149.13 154.37 146.82 C152.24 139.36 149.11 132.79 145.5 125.94 C144.14 123.24 142.79 120.53 141.44 117.82 C140.76 116.45 140.07 115.08 139.39 113.71 C137.86 110.66 136.34 107.61 134.82 104.57 C134.43 103.8 134.04 103.03 133.64 102.23 C132.85 100.64 132.08 99.04 131.34 97.43 C128.5 91.43 125.28 85.63 120.5 80.94 C119.81 80.78 119.12 80.61 118.41 80.45 C117.78 80.28 117.15 80.11 116.5 79.94 C115.83 78.61 115.16 77.28 114.5 75.94 C113.42 74.63 112.29 73.35 111.12 72.11 C110.46 71.4 109.79 70.69 109.09 69.95 C108.38 69.2 107.67 68.46 106.94 67.69 C106.22 66.93 105.5 66.16 104.75 65.38 C100.41 60.83 95.98 56.5 91.17 52.43 C89.5 50.94 89.5 50.94 87.57 48.38 C82.43 42.31 74.81 38.47 68.02 34.48 C65.37 32.86 62.85 31.12 60.32 29.32 C53.97 24.85 48.23 21.71 40.88 19.19 C39.91 18.86 39.91 18.86 38.92 18.52 C35.34 17.34 32.27 16.68 28.5 16.94 C28.5 16.28 28.5 15.62 28.5 14.94 C22.53 11.97 16.7 10.15 10.21 8.67 C7.5 7.94 7.5 7.94 4.5 6.25 C0.64 4.56 -2.37 4.79 -6.55 4.9 C-11.71 4.95 -16.84 4.73 -22 4.5 C-23.01 4.46 -24.02 4.42 -25.06 4.37 C-30.1 4.14 -35.1 3.83 -40.12 3.32 C-45.19 2.84 -50.02 3.21 -55.08 3.69 Z " fill="#050404" transform="translate(686.49609375,452.05859375)"/>
<path d="M0 0 C2.19 0.27 4.39 0.52 6.59 0.77 C13.56 1.6 19.97 2.56 26.44 5.46 C32.42 7.62 38.43 9.23 44.64 10.61 C47.61 11.51 49.82 12.81 52.44 14.46 C54.33 15.23 56.24 15.87 58.18 16.51 C60.77 17.59 63.13 18.98 65.55 20.39 C68.63 22.13 71.82 23.65 75 25.21 C80.37 27.88 85.73 30.58 91 33.46 C92.61 34.32 92.61 34.32 94.25 35.21 C96.97 37.13 98.58 38.65 100.68 41.14 C104.17 45.2 107.86 48.97 111.69 52.7 C113.05 54.05 114.41 55.39 115.78 56.74 C117.89 58.82 120 60.9 122.12 62.97 C124.19 65 126.25 67.04 128.31 69.08 C128.94 69.68 129.56 70.29 130.21 70.91 C134.68 75.36 138.06 80.15 141.44 85.46 C142.73 87.24 144.05 89.01 145.37 90.77 C154.36 103.1 161.34 116.87 165.83 131.48 C166.24 132.81 166.68 134.13 167.17 135.43 C169.47 141.69 170.59 148.12 171.74 154.66 C172.27 157.54 172.86 160.36 173.56 163.21 C175.84 173.26 175.6 183.77 175.56 194.02 C175.56 195.33 175.55 196.64 175.55 197.99 C175.5 205.5 175.43 213.01 175.12 220.52 C175.1 221.27 175.08 222.01 175.05 222.78 C174.82 227.25 173.73 229.71 171.44 233.46 C170.73 236.26 170.34 239.1 169.94 241.96 C169.2 247.22 168.38 250.92 165.44 255.46 C164.89 257.23 164.41 259.02 164 260.83 C162.76 265.68 161.02 269.2 158.44 273.46 C157.76 275.45 157.09 277.45 156.44 279.46 C155.9 280.34 155.36 281.23 154.81 282.14 C153.18 284.44 153.18 284.44 153.44 287.46 C152.78 287.46 152.12 287.46 151.44 287.46 C151.16 288.02 150.89 288.58 150.6 289.17 C146.1 298.01 140.33 305.83 134.29 313.66 C130.75 318.32 130.75 318.32 128.39 323.63 C127.02 327.7 124.43 330.02 121.37 332.96 C120.79 333.53 120.21 334.09 119.61 334.68 C114.79 339.3 109.67 344.13 103.19 346.16 C100.47 347.44 98.89 348.71 96.69 350.71 C92.52 354.48 88.09 357.5 83.31 360.46 C82.48 360.97 81.65 361.49 80.79 362.02 C70.4 368.41 60.51 373.5 48.55 376.35 C44.59 377.34 40.83 378.74 37.02 380.18 C28.64 383.32 21.63 385.09 12.64 385.28 C8.88 385.49 5.91 386.41 2.43 387.76 C-0.84 388.9 -4.13 389.1 -7.56 389.46 C-8.55 389.79 -9.54 390.12 -10.56 390.46 C-11.22 390.13 -11.88 389.8 -12.56 389.46 C-14.29 389.49 -16.02 389.56 -17.75 389.64 C-25.38 389.74 -32.61 388.37 -40.08 386.88 C-45.87 385.76 -51.2 385.3 -57.1 385.6 C-60.85 385.38 -63.5 383.69 -66.73 381.88 C-70.11 380.18 -73.58 379.09 -77.19 378.02 C-93.06 373.25 -107.07 367.12 -121 358.04 C-123.22 356.67 -125.38 355.57 -127.75 354.52 C-131.88 352.58 -134.51 349.58 -137.6 346.3 C-140.38 343.7 -142.98 342.65 -146.56 341.46 C-146.56 340.8 -146.56 340.14 -146.56 339.46 C-147.09 339.25 -147.62 339.04 -148.17 338.83 C-151.55 336.89 -154.15 334.26 -156.88 331.52 C-157.75 330.65 -157.75 330.65 -158.63 329.77 C-162.73 325.56 -166.01 321.23 -168.9 316.09 C-170.29 313.89 -171.66 312.13 -173.37 310.19 C-176.85 306.22 -179.78 301.97 -182.69 297.58 C-183.2 296.83 -183.71 296.08 -184.24 295.3 C-187.17 290.91 -189.55 286.56 -191.6 281.7 C-192.58 279.43 -193.64 277.23 -194.75 275.02 C-201.49 261.44 -206.34 248.22 -208.11 233.09 C-208.41 230.51 -208.41 230.51 -209.55 228.62 C-219.61 207.25 -212.34 171.63 -206.48 149.9 C-205.47 146.08 -204.71 142.26 -204.06 138.37 C-203.56 136.46 -203.56 136.46 -201.56 133.46 C-200.83 131.35 -200.15 129.22 -199.5 127.08 C-199.16 125.96 -198.82 124.84 -198.47 123.68 C-197.53 120.54 -197.53 120.54 -197.07 117.6 C-196.9 116.9 -196.74 116.19 -196.56 115.46 C-195.57 114.96 -195.57 114.96 -194.56 114.46 C-193.54 112.25 -193.54 112.25 -192.63 109.64 C-191.34 106.11 -189.95 103.38 -187.56 100.46 C-188.22 100.13 -188.88 99.8 -189.56 99.46 C-188.57 99.46 -187.58 99.46 -186.56 99.46 C-186.28 98.88 -185.99 98.3 -185.69 97.71 C-184.98 96.28 -184.26 94.85 -183.53 93.42 C-183.19 92.75 -182.85 92.08 -182.5 91.39 C-182.16 90.72 -181.82 90.05 -181.47 89.36 C-180.45 87.31 -180.45 87.31 -179.56 84.46 C-179.23 84.79 -178.9 85.12 -178.56 85.46 C-178.26 84.94 -177.96 84.42 -177.65 83.88 C-175 79.48 -172.3 76.02 -168.56 72.46 C-167.32 71.14 -166.09 69.8 -164.88 68.46 C-164.3 67.82 -163.71 67.18 -163.12 66.52 C-161.45 64.51 -161.45 64.51 -160.67 62.01 C-157.25 54.12 -147.38 48.37 -140.37 43.83 C-139.77 43.38 -139.18 42.92 -138.56 42.46 C-138.56 41.8 -138.56 41.14 -138.56 40.46 C-137.57 40.13 -136.58 39.8 -135.56 39.46 C-135.56 38.47 -135.56 37.48 -135.56 36.46 C-134.24 36.46 -132.92 36.46 -131.56 36.46 C-129.49 35.2 -129.49 35.2 -127.38 33.46 C-119.28 27.52 -109.91 23.71 -100.7 19.82 C-97.61 18.56 -97.61 18.56 -95.06 16.96 C-92.63 15.49 -90.16 14.37 -87.53 13.28 C-84.51 12.01 -81.55 10.61 -78.58 9.23 C-76.56 8.46 -76.56 8.46 -73.56 8.46 C-71.95 8.04 -70.35 7.58 -68.75 7.08 C-67.92 6.83 -67.09 6.57 -66.23 6.31 C-64.46 5.74 -62.7 5.13 -60.95 4.48 C-56.1 3.01 -51.18 2.23 -46.19 1.39 C-45.19 1.22 -44.18 1.05 -43.15 0.87 C-40.29 0.38 -37.43 -0.09 -34.56 -0.54 C-33.88 -0.66 -33.19 -0.77 -32.48 -0.89 C-21.63 -2.48 -10.81 -1.34 0 0 Z M-41.81 7.33 C-42.63 7.41 -43.45 7.49 -44.29 7.57 C-48.41 8.03 -51.72 8.83 -55.56 10.46 C-59.29 11.24 -63.03 11.91 -66.78 12.58 C-70.64 13.47 -73.95 14.83 -77.56 16.46 C-79.18 16.97 -80.8 17.45 -82.44 17.89 C-87.39 19.34 -91.93 21.22 -96.56 23.46 C-97.74 24.02 -98.92 24.58 -100.14 25.16 C-107.41 28.49 -107.41 28.49 -113.56 33.46 C-114.6 33.87 -115.63 34.28 -116.69 34.71 C-120.79 36.35 -123.91 38.88 -127.32 41.65 C-129.3 43.24 -131.31 44.73 -133.38 46.21 C-148.38 57.43 -162.42 71.75 -172.56 87.46 C-173.75 89.12 -174.94 90.79 -176.13 92.46 C-178.63 96.01 -180.69 99.53 -182.56 103.46 C-183.08 104.1 -183.6 104.73 -184.13 105.39 C-185.8 107.55 -185.8 107.55 -186.56 110.96 C-187.56 114.46 -187.56 114.46 -188.91 116.09 C-191.43 119.69 -192.6 123.69 -194 127.83 C-194.31 128.73 -194.62 129.62 -194.93 130.55 C-202.02 151.44 -205.8 171.7 -205.88 193.77 C-205.88 194.53 -205.88 195.29 -205.89 196.08 C-205.9 206.96 -205.3 217.56 -203.75 228.33 C-203.59 229.49 -203.42 230.64 -203.25 231.84 C-202.4 237.17 -201.45 240.85 -198.56 245.46 C-197.83 247.89 -197.17 250.36 -196.56 252.83 C-194.86 259.79 -192.37 266.01 -189.13 272.39 C-186.63 277.32 -186.63 277.32 -185.56 279.52 C-182.89 285.04 -179.79 290.24 -176.56 295.46 C-176.02 296.36 -175.47 297.26 -174.9 298.19 C-170.94 304.59 -166.75 310.96 -161.56 316.46 C-160.9 316.46 -160.24 316.46 -159.56 316.46 C-159.3 317.04 -159.04 317.63 -158.77 318.23 C-156.63 322.17 -153.29 325.07 -150.13 328.21 C-149.41 328.92 -148.69 329.64 -147.94 330.38 C-142.5 335.72 -136.97 340.29 -130.56 344.46 C-129.8 344.97 -129.03 345.48 -128.24 346.01 C-126.77 347 -125.29 347.98 -123.81 348.96 C-121.37 350.59 -119 352.3 -116.63 354.02 C-111.81 357.39 -106.88 359.97 -101.56 362.46 C-100.47 363 -99.37 363.55 -98.23 364.11 C-85.59 370.32 -72.47 375.03 -58.56 377.46 C-58.23 377.79 -57.9 378.12 -57.56 378.46 C-33.23 384.37 2.94 386.01 26.44 376.46 C28.57 375.98 30.72 375.55 32.87 375.14 C41.83 373.28 51.07 371.08 58.44 365.46 C60.65 364.61 60.65 364.61 62.94 363.96 C66.34 362.89 68.67 361.75 71.44 359.46 C72.32 359.02 73.21 358.59 74.12 358.14 C78.44 355.94 82.64 353.48 86.44 350.46 C86.44 349.8 86.44 349.14 86.44 348.46 C87.27 348.25 88.1 348.04 88.96 347.82 C93.34 346.1 96.41 343.64 100 340.64 C101.04 339.78 101.04 339.78 102.11 338.9 C114.33 328.65 126.39 317.05 134.36 303.11 C135.54 301.3 136.89 299.96 138.44 298.46 C141.47 294.35 143.52 290.21 145.41 285.51 C146.44 283.46 146.44 283.46 147.96 281.93 C149.69 280.2 150.19 278.83 150.94 276.52 C151.76 274.13 152.38 272.53 153.94 270.52 C156.35 267.2 157.23 263.35 158.44 259.46 C158.95 257.93 159.47 256.41 160 254.89 C160.99 251.94 161.83 248.99 162.56 245.96 C163.44 242.46 163.44 242.46 164.44 241.46 C165.25 238.18 165.81 234.84 166.44 231.52 C166.61 230.61 166.79 229.69 166.97 228.75 C173.62 193.71 170.95 147.18 151.87 115.89 C150.63 113.79 149.81 111.95 149.06 109.64 C147.43 105.15 145.05 101.43 142.44 97.46 C141.25 95.56 140.06 93.66 138.87 91.77 C136.59 88.13 134.15 84.78 131.44 81.46 C130.44 80.12 129.44 78.79 128.44 77.46 C117.74 63.74 105.02 50.4 90.46 40.8 C88.44 39.46 88.44 39.46 85.94 37.33 C82.78 34.96 79.4 33.38 75.84 31.7 C73.48 30.48 71.53 29.09 69.44 27.46 C64.9 24.61 60.66 22.76 55.55 21.17 C53.44 20.46 53.44 20.46 50.5 18.96 C46.29 16.89 41.94 15.71 37.44 14.46 C36.52 14.2 35.6 13.94 34.66 13.67 C29.54 12.24 24.42 10.96 19.21 9.89 C17.44 9.46 17.44 9.46 15.44 8.46 C-3.53 5.86 -22.76 5.5 -41.81 7.33 Z " fill="#040404" transform="translate(657.56494140625,471.544189453125)"/>
<path d="M0 0 C2.72 -0 5.43 -0.02 8.15 -0.03 C14.72 -0.06 21.3 -0.05 27.87 -0.04 C33.22 -0.02 38.57 -0.02 43.92 -0.03 C44.68 -0.03 45.45 -0.03 46.24 -0.03 C47.79 -0.03 49.35 -0.03 50.9 -0.04 C65.43 -0.05 79.97 -0.03 94.5 -0 C106.94 0.03 119.38 0.02 131.82 -0.01 C146.3 -0.04 160.79 -0.05 175.27 -0.03 C176.82 -0.03 178.37 -0.03 179.92 -0.03 C181.06 -0.03 181.06 -0.03 182.22 -0.02 C187.56 -0.02 192.9 -0.03 198.23 -0.04 C204.74 -0.06 211.26 -0.05 217.77 -0.02 C221.09 -0.01 224.4 -0 227.72 -0.02 C244.29 -0.1 259.03 0.03 272.48 10.96 C281.1 19.69 285.72 30.32 290.86 41.28 C293.79 47.53 296.93 53.47 300.51 59.38 C302.18 62.22 303.47 65.13 304.77 68.16 C311.84 85.72 311.84 85.72 325.89 97.18 C329.65 98.29 333.45 98.35 337.36 98.46 C338.18 98.5 339.01 98.53 339.86 98.57 C341.88 98.65 343.9 98.71 345.92 98.78 C345.92 99.11 345.92 99.44 345.92 99.78 C351.53 100.11 357.14 100.44 362.92 100.78 C362.92 101.11 362.92 101.44 362.92 101.78 C357.25 102.21 351.59 102.52 345.92 102.78 C344.9 102.83 343.87 102.88 342.82 102.94 C339.54 103.09 336.26 103.19 332.98 103.28 C331.94 103.33 330.9 103.39 329.83 103.44 C321.82 103.58 316.73 101.31 310.92 95.78 C308.15 91.9 306.38 87.86 304.52 83.49 C302.84 79.57 301.05 75.7 299.23 71.84 C298.88 71.1 298.54 70.37 298.18 69.61 C295.16 63.24 292.04 56.93 288.86 50.64 C287.57 48.09 286.31 45.54 285.07 42.98 C280.69 33.98 276.34 25.63 268.92 18.78 C268.09 17.93 267.27 17.09 266.42 16.21 C265.18 15.01 265.18 15.01 263.92 13.78 C262.97 12.73 262.97 12.73 261.99 11.66 C257.24 8.75 252.68 9.22 247.22 9.25 C246.02 9.25 244.82 9.24 243.58 9.23 C240.26 9.21 236.94 9.22 233.61 9.22 C230.03 9.23 226.44 9.21 222.86 9.2 C215.83 9.17 208.81 9.17 201.78 9.17 C196.07 9.18 190.36 9.17 184.65 9.16 C183.84 9.16 183.03 9.16 182.19 9.16 C180.54 9.16 178.89 9.15 177.24 9.15 C161.75 9.13 146.26 9.13 130.78 9.15 C116.61 9.16 102.45 9.13 88.29 9.1 C73.75 9.06 59.2 9.04 44.66 9.05 C36.49 9.05 28.33 9.05 20.16 9.02 C13.21 9 6.26 8.99 -0.69 9.02 C-4.24 9.03 -7.78 9.03 -11.33 9.01 C-15.18 8.98 -19.02 9 -22.87 9.03 C-23.99 9.01 -25.1 9 -26.25 8.98 C-35.21 9.11 -40.2 12.22 -46.68 18.16 C-54.33 26.86 -59.79 35.69 -64.24 46.36 C-66.9 52.63 -70.13 58.51 -73.53 64.4 C-77.05 70.53 -79.94 76.79 -82.47 83.4 C-88.46 98.95 -88.46 98.95 -96.08 102.78 C-102.36 103.91 -108.76 103.33 -115.08 102.78 C-116.22 102.69 -117.36 102.61 -118.54 102.52 C-120.72 102.32 -122.9 102.06 -125.08 101.78 C-125.08 101.45 -125.08 101.12 -125.08 100.78 C-164.35 100.45 -203.62 100.12 -244.08 99.78 C-244.08 99.45 -244.08 99.12 -244.08 98.78 C-243.37 98.77 -242.65 98.77 -241.91 98.77 C-224.47 98.69 -207.02 98.59 -189.58 98.49 C-181.14 98.44 -172.71 98.39 -164.27 98.35 C-156.92 98.32 -149.57 98.28 -142.22 98.23 C-138.32 98.21 -134.43 98.19 -130.54 98.17 C-126.87 98.16 -123.21 98.14 -119.54 98.11 C-117.56 98.1 -115.57 98.09 -113.59 98.09 C-112.4 98.08 -111.22 98.07 -110 98.05 C-108.97 98.05 -107.94 98.04 -106.88 98.04 C-100.99 97.49 -97.99 95.09 -94.08 90.78 C-91.23 87.34 -89.34 83.52 -87.39 79.53 C-86.68 78.08 -85.97 76.63 -85.25 75.19 C-84.89 74.45 -84.53 73.71 -84.16 72.96 C-83.15 70.91 -82.13 68.87 -81.1 66.83 C-77.93 60.55 -74.82 54.25 -71.88 47.85 C-54.59 10.57 -54.59 10.57 -34.32 2.77 C-23.32 -0.94 -11.46 -0.06 0 0 Z " fill="#030303" transform="translate(528.08203125,266.2236328125)"/>
<path d="M0 0 C1.13 -0 2.25 -0 3.41 -0.01 C7.09 -0.01 10.77 -0.01 14.45 -0 C17.03 -0 19.61 -0.01 22.19 -0.01 C27.58 -0.01 32.97 -0.01 38.36 -0 C44.56 0 50.77 0 56.97 -0 C62.98 -0.01 68.98 -0.01 74.99 -0 C77.53 -0 80.07 -0 82.61 -0.01 C86.16 -0.01 89.72 -0.01 93.27 0 C94.31 -0 95.34 -0 96.41 -0.01 C102.2 0.01 107.88 0.3 113.63 0.9 C117.46 1.26 121.28 1.34 125.11 1.41 C125.93 1.43 126.74 1.45 127.58 1.47 C130.14 1.52 132.7 1.58 135.26 1.63 C154.4 2.02 154.4 2.02 163.86 2.55 C165.09 2.61 166.31 2.68 167.57 2.75 C180.22 4.12 189.99 9.37 198.07 19.13 C199.23 21.2 200.1 23.25 200.95 25.46 C202.39 28.89 204.17 32.12 205.95 35.38 C209.03 41.08 211.84 46.85 214.52 52.76 C217.53 59.3 220.79 65.72 224.07 72.13 C224.42 72.81 224.77 73.5 225.13 74.21 C226.16 76.23 227.21 78.24 228.26 80.25 C228.57 80.86 228.88 81.46 229.19 82.08 C233.13 89.54 237.39 93.81 244.82 97.44 C252.03 101.09 252.03 101.09 253.07 102.13 C256.04 102.59 259.01 102.97 261.99 103.34 C265.52 104.24 267.41 105.7 270.07 108.13 C255.66 108.84 245.19 106.94 234.07 97.13 C233.37 96.58 232.67 96.04 231.95 95.47 C224.2 89.26 220.37 80.89 216.07 72.13 C215.41 71.14 214.75 70.15 214.07 69.13 C213.61 67.68 213.61 67.68 213.13 66.19 C212.27 63.19 212.27 63.19 210.63 61.25 C209.11 59.17 208.42 57.54 207.57 55.13 C206.74 52.77 206.09 51.15 204.57 49.13 C202.68 46.61 201.87 44.03 200.82 41.07 C199.86 38.57 198.48 36.41 197.07 34.13 C196.07 31.8 195.07 29.46 194.07 27.13 C193.11 25.44 192.11 23.77 191.07 22.13 C190.62 21.3 190.16 20.48 189.7 19.63 C187.13 15.68 184.6 12.64 180.07 11.13 C178.58 11.04 177.09 11 175.59 10.99 C174.67 10.99 173.75 10.98 172.8 10.98 C171.27 10.98 171.27 10.98 169.72 10.98 C168.64 10.97 167.56 10.97 166.45 10.96 C162.82 10.95 159.19 10.94 155.56 10.94 C152.97 10.93 150.37 10.92 147.78 10.91 C139.98 10.89 132.18 10.87 124.37 10.86 C122.17 10.86 119.97 10.85 117.76 10.85 C104.07 10.82 90.38 10.8 76.69 10.79 C73.52 10.79 70.35 10.78 67.17 10.78 C66.39 10.78 65.6 10.78 64.79 10.78 C52.03 10.76 39.26 10.73 26.5 10.69 C13.4 10.65 0.29 10.62 -12.82 10.62 C-20.17 10.61 -27.53 10.6 -34.89 10.57 C-41.81 10.54 -48.73 10.53 -55.66 10.55 C-58.19 10.55 -60.73 10.54 -63.27 10.52 C-66.74 10.5 -70.21 10.51 -73.69 10.52 C-74.69 10.51 -75.69 10.49 -76.72 10.48 C-84.39 10.57 -91.37 12.57 -96.93 18.13 C-97.73 20.11 -98.38 22.12 -99.05 24.16 C-99.93 26.13 -99.93 26.13 -101.43 27.61 C-103.27 29.48 -103.71 31 -104.43 33.5 C-105.53 37.08 -106.9 39.96 -108.93 43.13 C-109.26 44 -109.59 44.86 -109.93 45.75 C-110.93 48.13 -110.93 48.13 -112.4 49.5 C-114.24 51.46 -114.7 53.05 -115.43 55.63 C-116.4 59.08 -117.43 60.63 -119.93 63.13 C-120.92 65.39 -120.92 65.39 -121.62 67.82 C-121.99 69.03 -121.99 69.03 -122.38 70.27 C-122.56 70.88 -122.74 71.5 -122.93 72.13 C-123.59 72.13 -124.25 72.13 -124.93 72.13 C-125.11 72.82 -125.29 73.5 -125.48 74.21 C-125.73 75.11 -125.98 76.01 -126.24 76.94 C-126.48 77.84 -126.73 78.73 -126.98 79.65 C-127.97 82.23 -128.93 83.3 -130.93 85.13 C-131.36 86.08 -131.79 87.03 -132.24 88 C-134.33 91.88 -136.46 93.45 -139.93 96.13 C-140.46 96.69 -141 97.24 -141.55 97.82 C-142.93 99.13 -142.93 99.13 -144.93 100.07 C-147.06 101 -147.06 101 -148.25 103.09 C-151.4 106.93 -156.2 107.37 -160.93 108.13 C-165.61 108.35 -170.25 108.31 -174.93 108.13 C-170.82 104.68 -166.95 102.86 -161.93 101.13 C-150.17 96.94 -139.11 90.83 -133.3 79.32 C-132.5 77.59 -131.71 75.86 -130.93 74.13 C-130.06 72.33 -129.19 70.54 -128.3 68.75 C-127.92 67.96 -127.53 67.17 -127.14 66.36 C-125.93 64.13 -125.93 64.13 -124.37 62.07 C-122.95 60.16 -122.24 58.62 -121.49 56.38 C-119.97 52.1 -118.01 48.16 -115.93 44.13 C-115.11 42.48 -114.3 40.84 -113.49 39.19 C-111.46 35.12 -109.28 31.16 -107.03 27.21 C-105.77 24.96 -105.77 24.96 -104.74 21.69 C-100.95 14.24 -94.99 8.49 -87.12 5.57 C-72.32 1 -56.07 1.89 -40.73 1.58 C-38.2 1.52 -35.67 1.47 -33.14 1.41 C-32.39 1.4 -31.64 1.38 -30.87 1.37 C-26.69 1.27 -22.55 1.02 -18.38 0.63 C-12.24 0.11 -6.16 -0.01 0 0 Z " fill="#040404" transform="translate(592.927978515625,286.87060546875)"/>
<path d="M0 0 C1.35 -0 2.7 -0 4.05 -0 C7.74 -0.01 11.44 -0.01 15.14 -0 C19.16 -0 23.19 -0 27.21 -0.01 C34.26 -0.01 41.31 -0.01 48.36 -0.01 C58.85 -0 69.33 -0 79.82 -0.01 C98.54 -0.01 117.27 -0.01 135.99 -0.01 C152.37 -0.01 168.76 -0.01 185.14 -0.01 C186.23 -0.01 187.31 -0.01 188.43 -0.01 C192.84 -0.01 197.25 -0.01 201.66 -0.01 C243.04 -0.01 284.41 -0.01 325.78 -0 C362.55 0 399.32 0 436.09 -0 C477.4 -0.01 518.7 -0.01 560 -0.01 C564.41 -0.01 568.81 -0.01 573.21 -0.01 C574.29 -0.01 575.38 -0.01 576.49 -0.01 C592.87 -0.01 609.25 -0.01 625.62 -0.01 C644.24 -0.01 662.85 -0.01 681.47 -0.01 C691.89 -0 702.32 -0 712.74 -0.01 C719.7 -0.01 726.65 -0.01 733.61 -0 C737.58 -0 741.54 -0 745.51 -0 C749.12 -0.01 752.73 -0.01 756.33 -0 C758.24 -0 760.16 -0 762.07 -0.01 C777.31 0.03 777.31 0.03 779.41 2.13 C781.76 2.2 784.11 2.21 786.47 2.19 C787.76 2.18 789.05 2.17 790.38 2.16 C791.38 2.15 792.38 2.14 793.41 2.13 C793.41 1.8 793.41 1.47 793.41 1.13 C796.7 0.87 799.99 0.65 803.28 0.44 C804.69 0.33 804.69 0.33 806.12 0.22 C807.47 0.14 807.47 0.14 808.84 0.05 C810.08 -0.03 810.08 -0.03 811.34 -0.12 C812.02 -0.04 812.7 0.04 813.41 0.13 C814.07 1.12 814.73 2.11 815.41 3.13 C812.07 4.13 809.04 4.25 805.56 4.25 C804.36 4.26 803.16 4.26 801.92 4.26 C800.58 4.26 799.24 4.26 797.89 4.26 C796.47 4.26 795.04 4.26 793.62 4.26 C789.67 4.27 785.73 4.27 781.79 4.27 C777.51 4.27 773.23 4.27 768.95 4.28 C760.45 4.28 751.95 4.29 743.46 4.29 C733.28 4.29 723.11 4.29 712.93 4.3 C688.34 4.32 663.75 4.32 639.16 4.33 C627.53 4.33 615.9 4.33 604.28 4.34 C564.51 4.35 524.73 4.36 484.96 4.36 C482.46 4.36 479.97 4.36 477.47 4.36 C474.97 4.36 472.46 4.36 469.96 4.36 C464.94 4.37 459.91 4.37 454.89 4.37 C453.02 4.37 453.02 4.37 451.12 4.37 C410.71 4.37 370.3 4.39 329.89 4.41 C287.19 4.43 244.5 4.45 201.81 4.45 C197.12 4.45 192.44 4.45 187.76 4.45 C186.03 4.45 186.03 4.45 184.27 4.45 C165.67 4.45 147.08 4.46 128.49 4.48 C109.82 4.49 91.16 4.49 72.49 4.49 C61.39 4.48 50.28 4.49 39.18 4.5 C31.77 4.51 24.37 4.51 16.97 4.5 C12.74 4.49 8.51 4.49 4.28 4.51 C0.45 4.52 -3.39 4.52 -7.23 4.5 C-8.62 4.5 -10 4.5 -11.39 4.51 C-13.26 4.52 -15.13 4.51 -17 4.5 C-18.56 4.5 -18.56 4.5 -20.15 4.5 C-20.96 4.38 -21.76 4.25 -22.59 4.13 C-23.25 3.14 -23.91 2.15 -24.59 1.13 C-16.38 0.21 -8.26 -0.02 0 0 Z " fill="#312F2B" transform="translate(244.59360885620117,999.8741588592529)"/>
<path d="M0 0 C0.99 0 1.98 0 3 0 C3 189.75 3 379.5 3 575 C-1 572 -1 572 -2 569 C-4.49 545.26 -3.14 520.73 -3.13 496.9 C-3.13 490.67 -3.13 484.43 -3.13 478.2 C-3.14 466.72 -3.14 455.24 -3.14 443.76 C-3.13 433.15 -3.13 422.55 -3.13 411.94 C-3.13 411.24 -3.13 410.53 -3.13 409.8 C-3.13 406.93 -3.13 404.06 -3.14 401.2 C-3.14 374.35 -3.14 347.51 -3.13 320.67 C-3.13 296.86 -3.13 273.06 -3.13 249.26 C-3.14 222.45 -3.14 195.64 -3.13 168.84 C-3.13 165.98 -3.13 163.12 -3.13 160.25 C-3.13 159.55 -3.13 158.85 -3.13 158.12 C-3.13 147.52 -3.13 136.92 -3.14 126.33 C-3.14 114.27 -3.14 102.21 -3.13 90.16 C-3.13 84.01 -3.13 77.87 -3.13 71.73 C-3.14 66.09 -3.13 60.46 -3.13 54.82 C-3.13 52.8 -3.13 50.77 -3.13 48.74 C-3.14 38.89 -3.04 29.05 -2.55 19.21 C-2.52 18.41 -2.48 17.62 -2.44 16.8 C-1.61 1.61 -1.61 1.61 0 0 Z " fill="#1E1D1A" transform="translate(217,403)"/>
<path d="M0 0 C1.07 -0 2.13 -0.01 3.23 -0.01 C4.99 -0.01 4.99 -0.01 6.8 -0 C8.05 -0 9.3 -0.01 10.58 -0.01 C14.08 -0.01 17.57 -0.01 21.06 -0.01 C24.86 -0.01 28.65 -0.01 32.44 -0.01 C39.09 -0.02 45.75 -0.02 52.4 -0.02 C62.29 -0.02 72.19 -0.02 82.08 -0.03 C100.78 -0.04 119.47 -0.04 138.17 -0.04 C152.61 -0.04 167.04 -0.04 181.48 -0.05 C185.63 -0.05 189.78 -0.05 193.93 -0.05 C195.48 -0.05 195.48 -0.05 197.06 -0.05 C226.1 -0.06 255.14 -0.06 284.18 -0.06 C285.27 -0.06 286.37 -0.06 287.5 -0.06 C293.05 -0.06 298.6 -0.06 304.15 -0.06 C305.81 -0.06 305.81 -0.06 307.5 -0.06 C309.73 -0.06 311.96 -0.06 314.19 -0.06 C348.89 -0.06 383.59 -0.07 418.29 -0.08 C457.25 -0.09 496.21 -0.1 535.18 -0.1 C539.33 -0.1 543.48 -0.1 547.63 -0.1 C549.17 -0.1 549.17 -0.1 550.73 -0.1 C567.21 -0.1 583.68 -0.11 600.16 -0.12 C616.71 -0.13 633.26 -0.13 649.81 -0.12 C659.65 -0.12 669.49 -0.12 679.32 -0.13 C685.89 -0.13 692.46 -0.13 699.03 -0.13 C702.77 -0.12 706.52 -0.12 710.26 -0.13 C714.3 -0.14 718.33 -0.13 722.36 -0.12 C723.52 -0.13 724.69 -0.13 725.89 -0.14 C731.92 -0.11 737.12 0.36 742.89 2.13 C742.89 2.79 742.89 3.45 742.89 4.13 C494.4 4.13 245.91 4.13 -10.11 4.13 C-7.25 -0.15 -4.82 0 0 0 Z " fill="#020202" transform="translate(264.1082918047905,995.8735001683235)"/>
<path d="M0 0 C1.98 0.99 1.98 0.99 4 2 C4 190.1 4 378.2 4 572 C1 569 1 569 0.63 567.14 C0.63 566.43 0.63 565.72 0.63 564.99 C0.62 563.77 0.62 563.77 0.61 562.51 C0.62 561.16 0.62 561.16 0.63 559.78 C0.63 558.82 0.63 557.86 0.62 556.87 C0.62 553.62 0.63 550.38 0.65 547.13 C0.65 544.79 0.64 542.45 0.64 540.11 C0.64 534.33 0.65 528.56 0.66 522.78 C0.68 515.86 0.68 508.95 0.68 502.03 C0.68 489.27 0.69 476.5 0.71 463.74 C0.73 451.09 0.75 438.45 0.75 425.81 C0.75 425.02 0.76 424.23 0.76 423.43 C0.76 419.44 0.76 415.45 0.76 411.46 C0.77 383.18 0.8 354.91 0.83 326.64 C0.84 319.78 0.84 312.93 0.85 306.07 C0.85 305.22 0.85 304.37 0.86 303.49 C0.88 283.74 0.89 263.99 0.91 244.23 C0.91 243.39 0.91 242.54 0.91 241.67 C0.93 222.36 0.94 203.05 0.95 183.74 C0.95 182.93 0.96 182.12 0.96 181.29 C0.96 173.99 0.96 166.7 0.97 159.41 C0.98 140.42 1 121.42 1.02 102.43 C1.03 90.53 1.05 78.62 1.05 66.71 C1.06 59.83 1.07 52.95 1.08 46.07 C1.09 39.78 1.1 33.49 1.1 27.2 C1.1 24.92 1.1 22.64 1.11 20.35 C1.11 17.26 1.12 14.18 1.11 11.09 C1.12 10.19 1.12 9.29 1.13 8.35 C1.25 4.04 1.25 4.04 0 0 Z " fill="#312F2B" transform="translate(1059,398)"/>
<path d="M0 0 C2.15 -0 4.29 -0 6.44 -0.01 C12.19 -0.01 17.94 -0.01 23.69 -0 C29.76 -0 35.83 -0 41.9 -0.01 C52.09 -0.01 62.27 -0.01 72.46 -0 C84.17 0 95.88 0 107.58 -0 C117.71 -0.01 127.84 -0.01 137.96 -0.01 C143.98 -0 149.99 -0 156.01 -0.01 C204.49 -0.03 204.49 -0.03 226.21 1.13 C226.21 1.46 226.21 1.79 226.21 2.13 C201.57 3.37 176.94 3.28 152.27 3.26 C146.33 3.26 140.38 3.26 134.43 3.27 C124.45 3.27 114.48 3.26 104.5 3.26 C93.04 3.25 81.58 3.26 70.12 3.26 C60.2 3.27 50.28 3.27 40.36 3.26 C34.47 3.26 28.58 3.26 22.69 3.27 C-24.7 3.29 -24.7 3.29 -47.79 2.13 C-47.79 1.8 -47.79 1.47 -47.79 1.13 C-31.85 0.39 -15.95 -0.02 0 0 Z " fill="#312F2B" transform="translate(553.78857421875,274.87060546875)"/>
<path d="M0 0 C-1.42 4.5 -3.66 6.74 -7 10 C-8.51 11.66 -10.01 13.33 -11.5 15 C-17.04 21.12 -22.86 26.97 -28.69 32.81 C-29.58 33.71 -30.47 34.6 -31.39 35.53 C-47.9 52 -47.9 52 -54 52 C-53.45 48.15 -51.68 46.68 -49 44 C-49 43.01 -49 42.02 -49 41 C-48.15 40.64 -47.31 40.27 -46.44 39.9 C-42.34 37.63 -39.35 34.87 -36 31.62 C-34.81 30.49 -33.63 29.36 -32.44 28.23 C-31.58 27.41 -31.58 27.41 -30.7 26.57 C-29.07 25.06 -27.39 23.65 -25.66 22.24 C-22.96 19.96 -21.74 18.03 -20 15 C-18.36 13.3 -16.69 11.64 -15 10 C-14.09 9.12 -13.18 8.23 -12.25 7.32 C-10.86 6.02 -10.86 6.02 -9.44 4.69 C-8.04 3.36 -8.04 3.36 -6.62 2.01 C-4 0 -4 0 0 0 Z " fill="#030303" transform="translate(813,785)"/>
<path d="M0 0 C2.2 -0 4.41 -0 6.61 -0 C11.21 -0 15.81 -0 20.41 0 C26.26 0.01 32.11 0 37.96 -0 C42.51 -0 47.05 -0 51.6 -0 C53.76 -0 55.91 -0 58.07 -0 C86.11 -0.03 86.11 -0.03 94 1.13 C94.33 1.79 94.66 2.45 95 3.13 C88.05 4.04 81.27 4.28 74.26 4.26 C72.55 4.26 72.55 4.26 70.8 4.27 C67.06 4.27 63.31 4.27 59.56 4.27 C56.94 4.27 54.33 4.27 51.71 4.27 C46.24 4.27 40.77 4.27 35.29 4.26 C28.98 4.26 22.67 4.26 16.36 4.27 C10.26 4.27 4.17 4.27 -1.92 4.27 C-4.51 4.27 -7.09 4.27 -9.68 4.27 C-13.29 4.27 -16.9 4.27 -20.51 4.26 C-21.58 4.26 -22.64 4.27 -23.74 4.27 C-28.93 4.25 -33.88 4.04 -39 3.13 C-38.67 2.47 -38.34 1.81 -38 1.13 C-25.61 -0.84 -12.5 -0.01 0 0 Z " fill="#1E1D1A" transform="translate(611.99609375,283.8671875)"/>
<path d="M0 0 C0.66 1.65 1.32 3.3 2 5 C-2.96 11.3 -8.74 16.03 -15 21 C-16.23 22.02 -17.46 23.04 -18.69 24.06 C-19.45 24.7 -20.21 25.34 -21 26 C-22.65 24.35 -24.3 22.7 -26 21 C-25.36 20.57 -24.71 20.15 -24.05 19.71 C-17.4 15.1 -11.81 10.07 -6.24 4.22 C-2.19 0 -2.19 0 0 0 Z " fill="#020202" transform="translate(789,797)"/>
<path d="M0 0 C0.8 3.29 1.1 4.71 0 8 C-1.74 9.56 -3.54 11.05 -5.38 12.5 C-9.87 16.05 -9.87 16.05 -14 20 C-18.27 23.94 -18.27 23.94 -21.81 24.25 C-22.53 24.17 -23.26 24.09 -24 24 C-23.42 20.71 -22.46 19.09 -20.09 16.76 C-19.49 16.17 -18.89 15.57 -18.28 14.96 C-17.65 14.36 -17.02 13.75 -16.38 13.12 C-15.77 12.53 -15.17 11.93 -14.54 11.31 C-3.04 0 -3.04 0 0 0 Z " fill="#020202" transform="translate(507,505)"/>
<path d="M0 0 C0.66 0.33 1.32 0.66 2 1 C2 11.89 2 22.78 2 34 C1.67 33.34 1.34 32.68 1 32 C0.34 32 -0.32 32 -1 32 C-2.3 26.29 -2.18 20.71 -2.19 14.88 C-2.2 13.78 -2.21 12.68 -2.22 11.55 C-2.23 9.97 -2.23 9.97 -2.23 8.37 C-2.23 7.41 -2.24 6.45 -2.24 5.46 C-2 3 -2 3 0 0 Z " fill="#1E1D1A" transform="translate(849,648)"/>
<path d="M0 0 C3.94 4.72 5.2 10.21 7 16 C7.3 16.89 7.61 17.78 7.92 18.69 C9.8 24.34 10.29 29.05 10 35 C6.81 31.5 5.98 27.69 5 23.19 C4.08 19.05 3.14 15.12 1.42 11.23 C-0.11 7.76 -0.7 4.77 -1 1 C-0.67 0.67 -0.34 0.34 0 0 Z " fill="#22211D" transform="translate(821,592)"/>
<path d="M0 0 C0.66 0.66 1.32 1.32 2 2 C1.43 2.63 0.86 3.26 0.28 3.91 C-0.88 5.19 -0.88 5.19 -2.06 6.5 C-3.19 7.75 -3.19 7.75 -4.35 9.03 C-5.77 10.63 -7.19 12.23 -8.58 13.85 C-12.85 18.83 -17.39 23.4 -22.19 27.88 C-22.89 28.54 -23.58 29.2 -24.3 29.88 C-24.98 30.52 -25.66 31.15 -26.36 31.8 C-26.96 32.37 -27.57 32.94 -28.19 33.52 C-30.04 35.03 -31.83 36.02 -34 37 C-30.4 32.61 -26.59 28.52 -22.56 24.53 C-22.07 24.04 -21.57 23.56 -21.06 23.05 C-19 21.02 -16.94 18.99 -14.87 16.97 C-6.79 9.04 -6.79 9.04 0 0 Z " fill="#3D3C3A" transform="translate(807,792)"/>
<path d="M0 0 C0.33 0 0.66 0 1 0 C1 11.55 1 23.1 1 35 C0.67 35 0.34 35 0 35 C0 33.02 0 31.04 0 29 C-0.66 29 -1.32 29 -2 29 C-2.06 25.48 -2.09 21.96 -2.12 18.44 C-2.14 17.45 -2.16 16.46 -2.18 15.44 C-2.21 9.87 -1.87 5.25 0 0 Z " fill="#312F2B" transform="translate(430,646)"/>
<path d="M0 0 C0.5 1.49 0.5 1.49 1 3 C-4.9 8.47 -11.47 12.69 -18.27 16.92 C-19.87 17.92 -21.47 18.93 -23.06 19.95 C-23.95 20.5 -24.83 21.05 -25.75 21.62 C-26.92 22.36 -26.92 22.36 -28.11 23.1 C-28.73 23.4 -29.36 23.69 -30 24 C-30.66 23.67 -31.32 23.34 -32 23 C-29.8 20.59 -27.62 19.09 -24.75 17.56 C-23.96 17.13 -23.17 16.7 -22.36 16.26 C-20.87 15.47 -19.38 14.68 -17.89 13.89 C-13.92 11.89 -13.92 11.89 -12 8 C-11.32 7.98 -10.64 7.96 -9.94 7.94 C-5.53 6.53 -3.05 3.37 0 0 Z " fill="#23221E" transform="translate(772,828)"/>
<path d="M0 0 C3.46 0.57 4.96 1.64 7.28 4.24 C8.17 5.22 8.17 5.22 9.08 6.22 C9.7 6.91 10.31 7.6 10.94 8.31 C14.76 12.58 18.46 16.48 23 20 C24.31 22.25 24.31 22.25 25 24 C21.15 22.39 18.33 19.81 15.31 17 C14.79 16.52 14.27 16.03 13.73 15.54 C8.85 10.97 4.22 6.18 0 1 C0 0.67 0 0.34 0 0 Z " fill="#C8C8C8" transform="translate(786,496)"/>
<path d="M0 0 C0 0.66 0 1.32 0 2 C-0.99 2.5 -1.98 2.99 -3 3.5 C-7.11 5.81 -10.04 8.93 -13.2 12.39 C-15 14 -15 14 -18 14 C-17.02 8.3 -12.62 4.88 -8.09 1.62 C-3.52 -1.17 -3.52 -1.17 0 0 Z " fill="#1A1917" transform="translate(496,276)"/>
<path d="M0 0 C3.13 0.14 6.25 0.29 9.38 0.44 C10.26 0.48 11.15 0.52 12.07 0.56 C13.35 0.62 13.35 0.62 14.65 0.68 C15.43 0.72 16.22 0.76 17.03 0.79 C19 1 19 1 21 2 C21 2.66 21 3.32 21 4 C17.9 4.06 14.79 4.09 11.69 4.12 C10.37 4.15 10.37 4.15 9.02 4.18 C8.17 4.18 7.32 4.19 6.45 4.2 C5.67 4.21 4.89 4.22 4.08 4.23 C2 4 2 4 -1 2 C-0.67 1.34 -0.34 0.68 0 0 Z " fill="#1E1D1A" transform="translate(653,456)"/>
<path d="M0 0 C0 0.99 0 1.98 0 3 C-0.66 3 -1.32 3 -2 3 C-2.2 3.7 -2.41 4.41 -2.62 5.13 C-4.41 8.86 -7.07 11.19 -10.12 13.88 C-10.71 14.4 -11.29 14.92 -11.9 15.46 C-13.06 16.51 -14.23 17.55 -15.4 18.58 C-16.77 19.79 -18.12 21.03 -19.46 22.27 C-22.79 25.3 -25.57 27.75 -30 29 C-26.95 24.43 -22.64 21.28 -18.34 17.93 C-12.91 13.65 -8.43 9.51 -4.44 3.85 C-3 2 -3 2 0 0 Z " fill="#21201D" transform="translate(795,797)"/>
<path d="M0 0 C3.72 3.11 7.37 6.27 10.88 9.62 C11.45 10.17 12.02 10.72 12.62 11.29 C14.15 13.19 14.59 14.61 15 17 C10.45 16.63 8.14 13.33 5.31 10.12 C4.81 9.58 4.32 9.04 3.8 8.48 C1.58 6.01 0.06 4.19 -1 1 C-0.67 0.67 -0.34 0.34 0 0 Z " fill="#020202" transform="translate(782,512)"/>
<path d="M0 0 C1.27 -0.01 2.54 -0.03 3.85 -0.04 C7.18 0.17 9.4 0.75 12.38 2.19 C12.38 2.52 12.38 2.85 12.38 3.19 C3.47 3.19 -5.45 3.19 -14.62 3.19 C-14.62 2.53 -14.62 1.87 -14.62 1.19 C-9.71 0.39 -4.99 0.03 0 0 Z " fill="#272523" transform="translate(620.625,455.8125)"/>
<path d="M0 0 C0 0.66 0 1.32 0 2 C0.99 2.33 1.98 2.66 3 3 C2 4 2 4 -0.13 4.11 C-1.05 4.11 -1.97 4.1 -2.91 4.1 C-3.9 4.09 -4.89 4.09 -5.91 4.09 C-6.95 4.08 -7.99 4.07 -9.06 4.06 C-10.11 4.06 -11.15 4.05 -12.23 4.05 C-14.82 4.04 -17.41 4.02 -20 4 C-20.33 3.01 -20.66 2.02 -21 1 C-19.25 0.97 -17.5 0.95 -15.75 0.94 C-14.29 0.92 -14.29 0.92 -12.8 0.9 C-10 1 -10 1 -7.77 1.56 C-4.72 2.32 -3.06 0 0 0 Z " fill="#1E1D1A" transform="translate(655,859)"/>
<path d="M0 0 C4.53 3.68 8.39 7.41 12 12 C10.26 12.7 10.26 12.7 8 13 C5.89 11.71 5.89 11.71 3.81 9.81 C3.12 9.2 2.42 8.59 1.71 7.96 C-0.09 5.89 -0.71 4.7 -1 2 C-0.67 1.34 -0.34 0.68 0 0 Z " fill="#020202" transform="translate(495,800)"/>
<path d="M0 0 C0.99 0 1.98 0 3 0 C1.55 5.41 -2.1 8.22 -6.12 11.81 C-7.48 13.05 -8.84 14.29 -10.2 15.53 C-10.85 16.12 -11.51 16.72 -12.18 17.33 C-15.57 20.44 -18.8 23.7 -22 27 C-22.66 26.67 -23.32 26.34 -24 26 C-23 23 -23 23 -21.13 21.99 C-20.43 21.67 -19.72 21.34 -19 21 C-17.4 19.66 -17.4 19.66 -15.94 18.1 C-15.39 17.54 -14.84 16.98 -14.27 16.4 C-13.71 15.81 -13.14 15.23 -12.56 14.62 C-9.52 11.49 -6.57 8.45 -3.14 5.73 C-0.81 3.85 -0.31 2.93 0 0 Z " fill="#302E2A" transform="translate(503,502)"/>
<path d="M0 0 C0.66 0 1.32 0 2 0 C4.08 4.96 6.02 9.87 7.44 15.06 C8.7 19.52 10.64 23.18 13.11 27.09 C14 29 14 29 13 32 C11.98 30.34 10.99 28.67 10 27 C9.4 26.05 9.4 26.05 8.79 25.09 C5.58 19.75 3.96 14.69 2.68 8.6 C2.1 5.79 2.1 5.79 0 3 C0 2.01 0 1.02 0 0 Z " fill="#1E1D1A" transform="translate(450,717)"/>
<path d="M0 0 C0.66 0.33 1.32 0.66 2 1 C-3.63 7.71 -9.76 13.86 -16 20 C-16.66 19.34 -17.32 18.68 -18 18 C-12.06 12.06 -6.12 6.12 0 0 Z " fill="#C8C8C8" transform="translate(491,496)"/>
<path d="M0 0 C6.97 5.83 13.3 11.92 19 19 C18.67 19.66 18.34 20.32 18 21 C11.67 14.67 5.33 8.33 -1 2 C-0.67 1.34 -0.34 0.68 0 0 Z " fill="#3C3B38" transform="translate(780,507)"/>
<path d="M0 0 C1.32 0.66 2.64 1.32 4 2 C2.51 5.8 0.24 7.61 -3 10 C-3.99 8.68 -4.98 7.36 -6 6 C-4.02 4.02 -2.04 2.04 0 0 Z " fill="#030302" transform="translate(507,514)"/>
<path d="M0 0 C0.92 0.52 0.92 0.52 1.86 1.05 C-6.31 4.33 -14.49 6.38 -23.14 8.05 C-23.47 7.06 -23.8 6.07 -24.14 5.05 C-23.5 4.99 -22.86 4.93 -22.2 4.86 C-19.51 4.6 -16.82 4.33 -14.14 4.05 C-13.41 3.97 -12.69 3.9 -11.95 3.83 C-10.34 3.64 -8.73 3.35 -7.14 3.05 C-6.81 2.39 -6.48 1.73 -6.14 1.05 C-2.8 -1.25 -2.8 -1.25 0 0 Z " fill="#2A2824" transform="translate(706.13671875,864.953125)"/>
<path d="M0 0 C4.42 0.42 6.75 3.45 9.62 6.5 C12.96 10.2 12.96 10.2 17 13 C17 13.66 17 14.32 17 15 C12.49 13.58 10.05 11.34 6.81 7.94 C3.73 4.53 3.73 4.53 0 2 C0 1.34 0 0.68 0 0 Z " fill="#302E2A" transform="translate(494,798)"/>
<path d="M0 0 C0 0.66 0 1.32 0 2 C-1.7 3.52 -3.46 4.97 -5.25 6.38 C-8.05 8.59 -10.74 10.73 -13.23 13.29 C-15 15 -15 15 -17 15 C-16.67 14.01 -16.34 13.02 -16 12 C-15.34 12 -14.68 12 -14 12 C-13.66 11.14 -13.66 11.14 -13.31 10.27 C-11.64 7.38 -9.62 5.81 -7 3.75 C-6.11 3.04 -5.23 2.34 -4.31 1.61 C-2 0 -2 0 0 0 Z " fill="#1E1D1A" transform="translate(509,512)"/>
<path d="M0 0 C0 0.33 0 0.66 0 1 C-1.16 1.31 -1.16 1.31 -2.34 1.62 C-3.34 1.89 -4.34 2.16 -5.38 2.44 C-6.37 2.7 -7.37 2.97 -8.4 3.25 C-10.95 3.9 -10.95 3.9 -13 5 C-15.33 5.04 -17.67 5.04 -20 5 C-18 2 -18 2 -16.09 1.56 C-15.02 1.5 -15.02 1.5 -13.94 1.44 C-12.64 1.29 -11.34 1.15 -10 1 C-9.67 0.34 -9.34 -0.32 -9 -1 C-5.23 -2.26 -3.63 -1.37 0 0 Z " fill="#1E1D1A" transform="translate(598,460)"/>
<path d="M0 0 C3.02 2.56 4.24 5.38 5.75 9 C6.2 10.05 6.65 11.1 7.11 12.19 C8 15 8 15 7 18 C3.45 12.46 0.41 7.47 -1 1 C-0.67 0.67 -0.34 0.34 0 0 Z " fill="#1D1C19" transform="translate(438,730)"/>
<path d="M0 0 C0.99 0.33 1.98 0.66 3 1 C3.33 4.3 3.66 7.6 4 11 C3.01 11.5 3.01 11.5 2 12 C-0.08 10.28 -0.95 9.15 -1.81 6.56 C-2.02 3.68 -1.52 2.41 0 0 Z " fill="#1E1D1A" transform="translate(444,688)"/>
<path d="M0 0 C2.24 3.36 3.17 6.6 4.19 10.44 C4.47 11.44 4.47 11.44 4.76 12.46 C5.7 15.94 6.37 18.59 5 22 C1.01 14.81 0.25 8.15 0 0 Z " fill="#21201D" transform="translate(841,603)"/>
<path d="M0 0 C0.66 0.66 1.32 1.32 2 2 C1.02 2.83 0.05 3.66 -0.96 4.52 C-2.24 5.62 -3.53 6.71 -4.81 7.81 C-5.78 8.63 -5.78 8.63 -6.76 9.47 C-7.38 10 -8 10.53 -8.64 11.08 C-9.22 11.57 -9.79 12.06 -10.37 12.56 C-11.98 13.98 -13.5 15.47 -15 17 C-13.63 12.99 -11.71 10.24 -9 7 C-8.67 6.34 -8.34 5.68 -8 5 C-7.01 5 -6.02 5 -5 5 C-2.31 2.56 -2.31 2.56 0 0 Z " fill="#1E1D1A" transform="translate(511,517)"/>
<path d="M0 0 C0.99 0 1.98 0 3 0 C2.72 0.54 2.45 1.08 2.16 1.64 C0.84 4.32 -0.39 7.03 -1.62 9.75 C-2.29 11.23 -2.29 11.23 -2.98 12.73 C-3.31 13.48 -3.65 14.23 -4 15 C-4.99 14.67 -5.98 14.34 -7 14 C-5.87 10.09 -4.91 7.79 -2 5 C-0.81 2.4 -0.81 2.4 0 0 Z " fill="#1E1D1A" transform="translate(467,572)"/>
<path d="M0 0 C2.29 0.28 4.58 0.58 6.88 0.88 C8.79 1.12 8.79 1.12 10.74 1.37 C14 2 14 2 16 4 C11.38 4 6.76 4 2 4 C1.34 2.68 0.68 1.36 0 0 Z " fill="#262421" transform="translate(618,858)"/>
<path d="M0 0 C1.32 0.33 2.64 0.66 4 1 C5.21 5.67 5.09 10.21 5 15 C2.26 11.85 1.45 9.35 0.81 5.25 C0.65 4.27 0.5 3.28 0.33 2.27 C0.22 1.52 0.11 0.77 0 0 Z " fill="#1E1D1A" transform="translate(826,612)"/>
<path d="M0 0 C2.25 1.77 2.95 2.58 3.29 5.48 C3.26 6.37 3.22 7.27 3.19 8.19 C3.16 9.09 3.13 9.99 3.11 10.92 C3.07 11.61 3.04 12.29 3 13 C2.01 13.5 2.01 13.5 1 14 C-0.05 10.85 -0.1 8.61 -0.06 5.31 C-0.05 4.32 -0.04 3.32 -0.04 2.3 C-0.02 1.54 -0.01 0.78 0 0 Z " fill="#1E1D1A" transform="translate(1060,967)"/>
<path d="M0 0 C3.42 3.42 3.95 7.72 4.12 12.44 C4.08 13.28 4.04 14.13 4 15 C3.71 14.38 3.42 13.76 3.12 13.12 C2.06 10.87 2.06 10.87 0 9 C-0.63 6.32 -0.78 3.76 -1 1 C-0.67 0.67 -0.34 0.34 0 0 Z " fill="#1E1D1A" transform="translate(434,711)"/>
<path d="M0 0 C0.33 0 0.66 0 1 0 C1 5.28 1 10.56 1 16 C0.34 16.33 -0.32 16.66 -1 17 C-1.93 10.74 -2.21 5.98 0 0 Z " fill="#373532" transform="translate(430,646)"/>
<path d="M0 0 C3.68 1.54 5.99 3.78 8.75 6.62 C9.55 7.44 10.35 8.26 11.17 9.1 C12.08 10.04 12.08 10.04 13 11 C12.67 11.66 12.34 12.32 12 13 C9.99 11.21 8 9.42 6 7.62 C5.43 7.12 4.86 6.61 4.27 6.09 C2.81 4.76 1.4 3.39 0 2 C0 1.34 0 0.68 0 0 Z " fill="#312F2B" transform="translate(498,821)"/>
<path d="M0 0 C0.33 0 0.66 0 1 0 C1 1.98 1 3.96 1 6 C1.66 6 2.32 6 3 6 C3.33 8.97 3.66 11.94 4 15 C3.01 15.5 3.01 15.5 2 16 C-0.33 10.2 -1.44 6.14 0 0 Z " fill="#1E1D1A" transform="translate(429,675)"/>
<path d="M0 0 C1.62 -0.03 3.25 -0.05 4.88 -0.06 C5.78 -0.07 6.68 -0.09 7.62 -0.1 C10 0 10 0 12 1 C12 1.66 12 2.32 12 3 C10.56 3.03 9.13 3.05 7.69 3.06 C6.49 3.08 6.49 3.08 5.26 3.1 C3 3 3 3 0 2 C0 1.34 0 0.68 0 0 Z " fill="#312F2B" transform="translate(662,457)"/>
<path d="M0 0 C1.49 0.99 1.49 0.99 3 2 C3.31 5.5 3.31 5.5 3 9 C2.34 9.66 1.68 10.32 1 11 C-1.79 6.82 -0.8 4.85 0 0 Z " fill="#1E1D1A" transform="translate(832,688)"/>
<path d="M0 0 C2.35 2.55 2.98 3.71 3.19 7.25 C3.13 8.16 3.06 9.07 3 10 C2.01 10.5 2.01 10.5 1 11 C1 10.01 1 9.02 1 8 C0.34 8 -0.32 8 -1 8 C-1.04 5.67 -1.04 3.33 -1 1 C-0.67 0.67 -0.34 0.34 0 0 Z " fill="#1E1D1A" transform="translate(832,631)"/>
<path d="M0 0 C4.85 1.12 7.78 2.13 11 6 C7.7 5.34 4.4 4.68 1 4 C0.67 2.68 0.34 1.36 0 0 Z " fill="#1E1D1A" transform="translate(590,853)"/>
<path d="M0 0 C1.19 0.19 2.38 0.39 3.6 0.59 C4.97 0.82 4.97 0.82 6.38 1.06 C6.38 1.39 6.38 1.72 6.38 2.06 C1.75 2.06 -2.87 2.06 -7.62 2.06 C-7.96 1.4 -8.28 0.74 -8.62 0.06 C-5.62 -1.44 -3.28 -0.55 0 0 Z " fill="#2B2A28" transform="translate(675.625,870.9375)"/>
<path d="M0 0 C4.03 4.58 5.37 9.97 5 16 C1.76 11.14 -0.56 5.95 0 0 Z " fill="#1E1D1A" transform="translate(835,586)"/>
<path d="M0 0 C1.62 -0.08 3.25 -0.14 4.88 -0.19 C5.78 -0.22 6.68 -0.26 7.62 -0.29 C8.8 -0.15 8.8 -0.15 10 0 C10.66 0.99 11.32 1.98 12 3 C7.71 2.67 3.42 2.34 -1 2 C-0.67 1.34 -0.34 0.68 0 0 Z " fill="#23211E" transform="translate(595,871)"/>
<path d="M0 0 C0 0.66 0 1.32 0 2 C0.99 2.33 1.98 2.66 3 3 C2 4 2 4 -0.29 4.1 C-1.66 4.08 -1.66 4.08 -3.06 4.06 C-3.98 4.05 -4.9 4.04 -5.85 4.04 C-6.56 4.02 -7.27 4.01 -8 4 C-5.57 1.34 -3.76 0 0 0 Z " fill="#23221F" transform="translate(655,859)"/>
</svg>
